<svg width="4123" height="1440" viewBox="0 0 4123 1440" fill="none" xmlns="http://www.w3.org/2000/svg">
<path d="M599.786 993H476.207L664.506 447.545H813.121L1001.15 993H877.574L740.944 572.19H736.683L599.786 993ZM592.063 778.6H883.966V868.621H592.063V778.6ZM1066.81 993V447.545H1285.2C1325.33 447.545 1358.8 453.494 1385.61 465.39C1412.42 477.286 1432.57 493.799 1446.07 514.928C1459.56 535.88 1466.31 560.028 1466.31 587.371C1466.31 608.678 1462.05 627.411 1453.52 643.568C1445 659.548 1433.28 672.687 1418.37 682.986C1403.63 693.107 1386.76 700.298 1367.76 704.559V709.886C1388.54 710.773 1407.98 716.633 1426.09 727.464C1444.38 738.295 1459.21 753.476 1470.57 773.007C1481.93 792.361 1487.61 815.443 1487.61 842.254C1487.61 871.196 1480.42 897.031 1466.04 919.758C1451.84 942.308 1430.8 960.152 1402.92 973.291C1375.04 986.43 1340.69 993 1299.85 993H1066.81ZM1182.13 898.717H1276.14C1308.28 898.717 1331.72 892.592 1346.46 880.34C1361.19 867.911 1368.56 851.398 1368.56 830.802C1368.56 815.71 1364.92 802.393 1357.64 790.852C1350.36 779.31 1339.98 770.255 1326.48 763.685C1313.17 757.116 1297.27 753.831 1278.81 753.831H1182.13V898.717ZM1182.13 675.795H1267.62C1283.42 675.795 1297.45 673.043 1309.7 667.538C1322.13 661.857 1331.9 653.866 1339 643.568C1346.28 633.27 1349.92 620.93 1349.92 606.548C1349.92 586.839 1342.91 570.947 1328.88 558.874C1315.03 546.8 1295.32 540.763 1269.75 540.763H1182.13V675.795ZM1562.65 993V447.545H1677.98V672.599H1912.09V447.545H2027.14V993H1912.09V767.68H1677.98V993H1562.65ZM2623.47 720.273C2623.47 779.754 2612.19 830.358 2589.64 872.084C2567.27 913.81 2536.73 945.681 2498.02 967.698C2459.49 989.538 2416.17 1000.46 2368.05 1000.46C2319.58 1000.46 2276.08 989.449 2237.55 967.432C2199.02 945.415 2168.57 913.543 2146.2 871.817C2123.82 830.092 2112.64 779.577 2112.64 720.273C2112.64 660.791 2123.82 610.188 2146.2 568.462C2168.57 526.736 2199.02 494.953 2237.55 473.114C2276.08 451.097 2319.58 440.088 2368.05 440.088C2416.17 440.088 2459.49 451.097 2498.02 473.114C2536.73 494.953 2567.27 526.736 2589.64 568.462C2612.19 610.188 2623.47 660.791 2623.47 720.273ZM2506.55 720.273C2506.55 681.743 2500.78 649.25 2489.23 622.794C2477.87 596.338 2461.8 576.274 2441.03 562.602C2420.25 548.93 2395.93 542.094 2368.05 542.094C2340.18 542.094 2315.85 548.93 2295.08 562.602C2274.3 576.274 2258.14 596.338 2246.6 622.794C2235.24 649.25 2229.56 681.743 2229.56 720.273C2229.56 758.803 2235.24 791.295 2246.6 817.751C2258.14 844.207 2274.3 864.271 2295.08 877.943C2315.85 891.615 2340.18 898.451 2368.05 898.451C2395.93 898.451 2420.25 891.615 2441.03 877.943C2461.8 864.271 2477.87 844.207 2489.23 817.751C2500.78 791.295 2506.55 758.803 2506.55 720.273ZM3070.58 623.859C3066.85 610.898 3061.61 599.445 3054.86 589.502C3048.12 579.381 3039.86 570.859 3030.1 563.934C3020.51 556.832 3009.5 551.416 2997.07 547.688C2984.82 543.959 2971.24 542.094 2956.32 542.094C2928.44 542.094 2903.94 549.019 2882.81 562.869C2861.86 576.718 2845.52 596.871 2833.81 623.327C2822.09 649.605 2816.23 681.743 2816.23 719.74C2816.23 757.737 2822 790.053 2833.54 816.686C2845.08 843.32 2861.42 863.65 2882.55 877.677C2903.67 891.526 2928.62 898.451 2957.39 898.451C2983.49 898.451 3005.77 893.835 3024.24 884.602C3042.88 875.191 3057.08 861.963 3066.85 844.918C3076.79 827.872 3081.76 807.719 3081.76 784.46L3105.2 787.922H2964.58V701.097H3192.83V769.811C3192.83 817.751 3182.71 858.945 3162.46 893.391C3142.22 927.659 3114.35 954.115 3078.83 972.759C3043.32 991.224 3002.66 1000.46 2956.85 1000.46C2905.72 1000.46 2860.79 989.183 2822.09 966.633C2783.38 943.906 2753.2 911.679 2731.53 869.953C2710.05 828.05 2699.31 778.334 2699.31 720.805C2699.31 676.594 2705.7 637.176 2718.48 602.553C2731.44 567.751 2749.56 538.277 2772.82 514.129C2796.08 489.982 2823.15 471.604 2854.05 458.998C2884.94 446.391 2918.41 440.088 2954.46 440.088C2985.35 440.088 3014.12 444.616 3040.75 453.671C3067.38 462.549 3091 475.156 3111.59 491.491C3132.37 507.826 3149.32 527.268 3162.46 549.818C3175.6 572.19 3184.04 596.871 3187.77 623.859H3070.58ZM3394.77 447.545V993H3279.45V447.545H3394.77ZM3553.84 999.925C3536.27 999.925 3521.17 993.71 3508.57 981.281C3496.14 968.675 3489.92 953.582 3489.92 936.004C3489.92 918.604 3496.14 903.689 3508.57 891.26C3521.17 878.831 3536.27 872.616 3553.84 872.616C3570.89 872.616 3585.8 878.831 3598.59 891.26C3611.37 903.689 3617.76 918.604 3617.76 936.004C3617.76 947.723 3614.75 958.465 3608.71 968.231C3602.85 977.819 3595.13 985.543 3585.54 991.402C3575.95 997.084 3565.38 999.925 3553.84 999.925Z" fill="white"/>
</svg>
