<?xml version="1.0" standalone="yes"?>
<svg xmlns="http://www.w3.org/2000/svg" width="300" height="80">
<path style="fill:#47714d; stroke:none;" d="M0 0L0 80L300 80L300 0L0 0z"/>
<path style="fill:#e7cad4; stroke:none;" d="M16 9L16 43L17 43L16 9M31 9L31 10L38 11L38 10L31 9M39.6667 9.33334L40.3333 9.66666L39.6667 9.33334M55 9L55 43L56 43L55 9z"/>
<path style="fill:#4e509e; stroke:none;" d="M79 9C83.994 16.5588 90.0023 40.7829 78 45L78 46L95 46L95 45C87.6137 42.4048 89 35.6262 89 29C96.4132 28.9386 116.315 21.757 103.581 12.0895C97.3985 7.39568 86.2453 9 79 9z"/>
<path style="fill:#e7cad4; stroke:none;" d="M97 9L97 10L100 10L97 9z"/>
<path style="fill:#4e509e; stroke:none;" d="M17 10C17 20.6371 13.8687 37.2723 18.5725 46.9961C25.227 60.7526 46.4742 60.2982 53.3117 46.9853C58.2057 37.4566 55 20.533 55 10L17 10z"/>
<path style="fill:#e7cad4; stroke:none;" d="M101.667 10.3333L102.333 10.6667L101.667 10.3333M78 11L78 12L82 12L78 11M89 11L89 27L98 26L98 25L90 26L91 11L89 11z"/>
<path style="fill:#47714d; stroke:none;" d="M90 26L99 26L100 25L101 23L98 11C88.3792 12.1925 90 17.406 90 26z"/>
<path style="fill:#e7cad4; stroke:none;" d="M94 11L94 12L97 12L94 11M104 11L105 12L104 11z"/>
<path style="fill:#ef4841; stroke:none;" d="M19 12C19 21.5847 16.0065 37.2882 20.3179 45.9954C26.4283 58.3357 45.3364 58.0287 51.5432 45.9846C56.0013 37.3338 53 21.582 53 12L19 12z"/>
<path style="fill:#e7cad4; stroke:none;" d="M82 12L83 13L82 12M98 12L99 13L98 12M105 12L106 13L105 12M83 13L83 43L84 43L83 13M99 13L100 14L99 13M106 14L107 15L106 14M100 15L100 22L101 22L100 15z"/>
<path style="fill:#fcda17; stroke:none;" d="M21 16L21 19L22 19L21 16M23 16L24 17L23 16M31 16L32 17L31 16M35 16L36 17L35 16M37 16L40 19L37 16M43 16L44 17L43 16M27.6667 17.3333L28.3333 17.6667L27.6667 17.3333M49 17L51 19L49 17M35 18L36 19L35 18M44 18L45 19L44 18z"/>
<path style="fill:#e7cad4; stroke:none;" d="M107.333 18.6667L107.667 19.3333L107.333 18.6667M118 19L118 20L126 20L118 19M149 19L149 20L157 20L149 19M281 19L281 20L284 21L281 19M116 20L117 21L116 20z"/>
<path style="fill:#4e509e; stroke:none;" d="M118 20.5725C101.815 25.2183 109.601 51.4162 126 46.3465C142.954 41.105 135.282 15.6122 118 20.5725z"/>
<path style="fill:#e7cad4; stroke:none;" d="M127.667 20.3333L128.333 20.6667L127.667 20.3333M147 20L148 21L147 20z"/>
<path style="fill:#4e509e; stroke:none;" d="M149 20.5725C132.698 25.2503 140.642 51.4036 157 46.3465C173.711 41.18 165.997 15.6954 149 20.5725z"/>
<path style="fill:#e7cad4; stroke:none;" d="M158.667 20.3333L159.333 20.6667L158.667 20.3333z"/>
<path style="fill:#4e509e; stroke:none;" d="M170 20L170 21C175.282 26.5951 173 37.7123 173 45L169 45L169 46L180 46L180 45L177 45L177 34L189.21 44.9722L205 46L205 45C198.588 41.4644 201 30.4218 201 24L202 24C205.406 31.1684 211.834 42.3391 219 46C219 38.5264 216.59 26.73 222 21L222 20L214 20C218.089 26.8351 218 32.0421 218 40C211.43 32.2962 207.3 20.1336 196 20L196 21C199.54 24.1891 204.133 44.3642 195.895 44.3642C190.965 44.3642 187.221 36.2943 183 34C198.923 24.5161 178.48 20 170 20z"/>
<path style="fill:#e7cad4; stroke:none;" d="M183.667 20.3333L184.333 20.6667L183.667 20.3333M195 20L195 22L197 22L195 20M203 20L204 21L203 20M213.333 20.6667L213.667 21.3333L213.333 20.6667z"/>
<path style="fill:#4e509e; stroke:none;" d="M224 20L224 21C228.641 25.916 229.455 41.4408 223 45L223 46L234 46L234 45L231 45C231 37.7123 228.718 26.595 234 21L224 20M235 20L235 21C240.495 25.5774 241.793 41.0316 235 45L235 46L244 46L244 45C237.682 41.3091 240 30.4206 240 24L241 24L249 46L253 39L252 39L251 41C247.967 31.6931 246.237 20.0398 235 20z"/>
<path style="fill:#e7cad4; stroke:none;" d="M243.333 20.6667L243.667 21.3333L243.333 20.6667M259 20L260 21L259 20z"/>
<path style="fill:#4e509e; stroke:none;" d="M257 29L258 29L259 25L260 25C260 31.2764 262.272 41.5414 256 45L256 46L267 46L267 45L264 45C264 37.7123 261.718 26.595 267 21C260.614 18.3494 257.976 23.3592 257 29z"/>
<path style="fill:#e7cad4; stroke:none;" d="M267.333 20.6667L267.667 21.3333L267.333 20.6667z"/>
<path style="fill:#4e509e; stroke:none;" d="M281 20L275 38C278.985 37.0517 293.298 39.0181 286 45L286 46L296 46L296 45C289.012 39.4788 286.311 28.0701 283 20L281 20z"/>
<path style="fill:#e7cad4; stroke:none;" d="M114 21L115 22L114 21z"/>
<path style="fill:#47714d; stroke:none;" d="M118 21L113 28L113 39L119 46L129 44L132 30C126.987 24.0057 125.84 22.8727 118 21z"/>
<path style="fill:#e7cad4; stroke:none;" d="M119 21L119 22L126 22L119 21M129.667 21.3333L130.333 21.6667L129.667 21.3333M145 21L146 22L145 21z"/>
<path style="fill:#47714d; stroke:none;" d="M149 21L147 22L145 25L144 39L145 42L150 46L161 42L162 40L162 27L160 23L149 21z"/>
<path style="fill:#e7cad4; stroke:none;" d="M150 21L150 22L157 22L150 21M160 21L161 22L160 21M169 21L170 22L169 21M177 21L177 22L180 22L177 21z"/>
<path style="fill:#47714d; stroke:none;" d="M177 22L177 32L183 33L185 23L184 22L177 22z"/>
<path style="fill:#e7cad4; stroke:none;" d="M186 21L187 22L186 21M204 21L205 22L204 21M222.667 21.3333L223.333 21.6667L222.667 21.3333z"/>
<path style="fill:#47714d; stroke:none;" d="M231 44L234 46L235 46L238 44L237 21C227.791 22.9676 231 36.5853 231 44z"/>
<path style="fill:#e7cad4; stroke:none;" d="M234.667 21.3333L235.333 21.6667L234.667 21.3333M280 21L281 22L280 21M106.333 22.6667L106.667 23.3333L106.333 22.6667M113 22L114 23L113 22M117 22L118 23L117 22M127 22L128 23L127 22M131 22L132 23L131 22M148 22L149 23L148 22M157.667 22.3333L158.333 22.6667L157.667 22.3333M162 22L163 23L162 22M171 22C172.439 28.0441 173.901 38.8511 170 44L170 45C174.52 42.0698 175.056 25.5443 171 22M182 22L183 23L182 22M198 22L199 23L198 22M205 22L206 23L205 22M215.667 22.3333L216.333 22.6667L215.667 22.3333z"/>
<path style="fill:#47714d; stroke:none;" d="M219 22L220 23L219 22z"/>
<path style="fill:#e7cad4; stroke:none;" d="M220 22L221 23L220 22M225 22L226 44L227 44C227 37.5569 229.001 27.2814 225 22z"/>
<path style="fill:#47714d; stroke:none;" d="M226 22L227 23L226 22z"/>
<path style="fill:#e7cad4; stroke:none;" d="M231 22L232 23L231 22M237 22L238 23L237 22M258 22L259 23L258 22M264 22C264 27.0633 261.41 43.8022 267 45L267 44L264 22M284.333 22.6667L284.667 23.3333L284.333 22.6667M99 23L100 24L99 23M116 23L117 24L116 23M128 23L129 24L128 23M132 23L133 24L132 23M147 23L148 24L147 23M163 23L164 24L163 23M188 23L189 24L188 23M219 23L219 47L220 47L219 23M238 23L238 43L239 43L238 23M244 23L245 24L244 23M279.333 23.6667L279.667 24.3333L279.333 23.6667z"/>
<path style="fill:#fcda17; stroke:none;" d="M33 50L35 52L36 52L38 50C38.6195 53.6341 43.9742 50.3851 45.8472 48.6759C49.9771 44.9074 51.1294 38.1831 49.1944 33C48.2751 30.5373 45.4805 25.9709 43 28L42 28C41.7399 25.7891 41.063 24.2361 40 27C32.8064 16.0702 19.6177 33.6864 22.7222 43C23.6508 45.7858 33 55.523 33 50z"/>
<path style="fill:#e7cad4; stroke:none;" d="M105 24L106 25L105 24M111 24L112 25L111 24M115 24L116 25L115 24M133 24L134 25L133 24M142 24L143 25L142 24M146 24L147 25L146 24M159 24L160 25L159 24M164 24L165 25L164 24M184 24L185 25L184 24M189 24L189 30L190 30L189 24M199 24L199 42L200 42L199 24M201 24L201 43L202 43L201 24M206 24L207 25L206 24M240 24L240 43L241 43L240 24M257.333 24.6667L257.667 25.3333L257.333 24.6667M285.333 24.6667L285.667 25.3333L285.333 24.6667z"/>
<path style="fill:#ef4841; stroke:none;" d="M34.3333 25.6667L34.6667 26.3333L34.3333 25.6667M36 25L38 27L38 25L36 25z"/>
<path style="fill:#e7cad4; stroke:none;" d="M110 25L111 26L110 25M129 25L130 26L129 25M141 25L142 26L141 25M160.333 25.6667L160.667 26.3333L160.333 25.6667M207 25L208 26L207 25M245.333 25.6667L245.667 26.3333L245.333 25.6667M259 25L259 44L260 44L259 25z"/>
<path style="fill:#47714d; stroke:none;" d="M281 25L282 26L281 25z"/>
<path style="fill:#ef4841; stroke:none;" d="M31.6667 26.3333L32.3333 26.6667L31.6667 26.3333z"/>
<path style="fill:#e7cad4; stroke:none;" d="M109.333 26.6667L109.667 27.3333L109.333 26.6667M114.333 26.6667L114.667 27.3333L114.333 26.6667M134 26L135 27L134 26M140.333 26.6667L140.667 27.3333L140.333 26.6667M145.333 26.6667L145.667 27.3333L145.333 26.6667M165 26L166 27L165 26M208.333 26.6667L208.667 27.3333L208.333 26.6667M278 26L279 27L278 26M280 26L282 30L283 30L280 26M14 27L12 31L13 31L14 27z"/>
<path style="fill:#ef4841; stroke:none;" d="M29 27L30 28L29 27z"/>
<path style="fill:#e7cad4; stroke:none;" d="M57 27L59 31L60 31L57 27M102 27L103 28L102 27M130 27L130 30L131 30L130 27M135 27L135 30L136 30L135 27M203 27L204 28L203 27M256 27L257 28L256 27z"/>
<path style="fill:#47714d; stroke:none;" d="M258 27L259 28L258 27z"/>
<path style="fill:#e7cad4; stroke:none;" d="M286 27L287 28L286 27z"/>
<path style="fill:#4e509e; stroke:none;" d="M14 28L13 34L14 34L14 28M57 28L59 32L57 28z"/>
<path style="fill:#e7cad4; stroke:none;" d="M98 28L98 29L101 29L98 28M144 28L144 38L145 38L144 28M161.333 28.6667L161.667 29.3333L161.333 28.6667M166.333 28.6667L166.667 29.3333L166.333 28.6667M204.333 28.6667L204.667 29.3333L204.333 28.6667M209 28L210 29L209 28M246 28L247 29L246 28M277.333 28.6667L277.667 29.3333L277.333 28.6667z"/>
<path style="fill:#47714d; stroke:none;" d="M279 28L277 34L284 35L284 30L279 28z"/>
<path style="fill:#e7cad4; stroke:none;" d="M89 29L89 43L90 43L89 29M108 29L108 38L109 38L108 29M113 29L113 38L114 38L113 29M139 29L139 38L140 38L139 29M184.333 29.6667L184.667 30.3333L184.333 29.6667M210 29L211 30L210 29M242.333 29.6667L242.667 30.3333L242.333 29.6667M247.333 29.6667L247.667 30.3333L247.333 29.6667M255.333 29.6667L255.667 30.3333L255.333 29.6667z"/>
<path style="fill:#4e509e; stroke:none;" d="M256 29L255 34L256 34L256 29z"/>
<path style="fill:#e7cad4; stroke:none;" d="M279.333 29.6667L279.667 30.3333L279.333 29.6667M287.333 29.6667L287.667 30.3333L287.333 29.6667M188 30L189 31L188 30M205 30L206 31L205 30M257.333 30.6667L257.667 31.3333L257.333 30.6667M276.333 30.6667L276.667 31.3333L276.333 30.6667M183 31L184 32L183 31M187 31L188 32L187 31M206 31L207 32L206 31M211 31L212 32L211 31M243.333 31.6667L243.667 32.3333L243.333 31.6667M278.333 31.6667L278.667 32.3333L278.333 31.6667M283.333 31.6667L283.667 32.3333L283.333 31.6667M288.333 31.6667L288.667 32.3333L288.333 31.6667M14.3333 32.6667L14.6667 33.3333L14.3333 32.6667z"/>
<path style="fill:#47714d; stroke:none;" d="M34 32L32 37L34 32z"/>
<path style="fill:#4e509e; stroke:none;" d="M35 32L32 37L32 38L35 44L40 37L35 32z"/>
<path style="fill:#47714d; stroke:none;" d="M36 32L37 33L36 32z"/>
<path style="fill:#e7cad4; stroke:none;" d="M131 32L131 35L132 35L131 32M136 32L136 35L137 35L136 32M177 32L177 33L182 33L177 32M186 32L187 33L186 32M212 32L213 33L212 32M248.333 32.6667L248.667 33.3333L248.333 32.6667M254 32L255 33L254 32M256.333 32.6667L256.667 33.3333L256.333 32.6667M12 33L11 36L14 34L12 33M57 33L61 36L60 33L57 33z"/>
<path style="fill:#4e509e; stroke:none;" d="M58 33L59 34L58 33z"/>
<path style="fill:#47714d; stroke:none;" d="M183 33L185 35L183 33z"/>
<path style="fill:#e7cad4; stroke:none;" d="M184 33L185 34L184 33M207 33L208 34L207 33M275.333 33.6667L275.667 34.3333L275.333 33.6667M284 33L277 34C278.708 36.3395 285.578 37.1869 284 33z"/>
<path style="fill:#47714d; stroke:none;" d="M36 34L37 35L36 34z"/>
<path style="fill:#e7cad4; stroke:none;" d="M177 34L177 35L181 35L177 34M185 34L186 35L185 34M208 34L209 35L208 34M213 34L214 35L213 34M244.333 34.6667L244.667 35.3333L244.333 34.6667M253 34L252 38L253 38L253 34z"/>
<path style="fill:#4e509e; stroke:none;" d="M254 34L253 39L254 39L254 34z"/>
<path style="fill:#e7cad4; stroke:none;" d="M289.333 34.6667L289.667 35.3333L289.333 34.6667z"/>
<path style="fill:#47714d; stroke:none;" d="M38 36L38 37L43 35L38 36z"/>
<path style="fill:#ef4841; stroke:none;" d="M48.3333 35.6667L48.6667 36.3333L48.3333 35.6667z"/>
<path style="fill:#e7cad4; stroke:none;" d="M181 35L182 36L181 35M186 35L187 36L186 35M214 35L215 36L214 35M249 35L250 36L249 35M255.333 35.6667L255.667 36.3333L255.333 35.6667M274.333 35.6667L274.667 36.3333L274.333 35.6667M9 36L10 37L9 36z"/>
<path style="fill:#4e509e; stroke:none;" d="M41 36L42 37L41 36z"/>
<path style="fill:#e7cad4; stroke:none;" d="M61 36L63 38L61 36M161 36L161 39L162 39L161 36M166 36L166 39L167 39L166 36M182 36L183 37L182 36M187 36L188 37L187 36M209 36L210 37L209 36M215 36L216 37L215 36M245.333 36.6667L245.667 37.3333L245.333 36.6667M290.333 36.6667L290.667 37.3333L290.333 36.6667z"/>
<path style="fill:#4e509e; stroke:none;" d="M10 37L11 41L11 42C7.02092 45.7501 15.6918 61.4536 19.2461 64.4684C24.3859 68.8279 46.2573 68.6831 51.8511 65.0918C54.8554 63.163 54.3953 59.8236 55.8835 57C58.1128 52.7701 66.2028 46.9034 61 42L61 41L62 37C57.0355 40.1378 57.6383 46.2477 60 51L54 56L53 56L52 54L51 54C47.4175 60.7286 32.1473 65.4175 24.4684 60.1412C21.7806 58.2944 20.8587 54.1891 18 52L19 55L13 52L12 37L10 37z"/>
<path style="fill:#ef4841; stroke:none;" d="M45 37L46 38L45 37z"/>
<path style="fill:#e7cad4; stroke:none;" d="M59 37L58 40L59 40L59 37M130 37L130 40L131 40L130 37M135.333 37.6667L135.667 38.3333L135.333 37.6667M183 37L184 38L183 37M188 37L189 38L188 37M210 37L211 38L210 37M250 37L252 40L250 37M254.333 37.6667L254.667 38.3333L254.333 37.6667z"/>
<path style="fill:#ef4841; stroke:none;" d="M23.3333 38.6667L23.6667 39.3333L23.3333 38.6667z"/>
<path style="fill:#47714d; stroke:none;" d="M32 38L33 39L32 38M39 38L40 39L39 38z"/>
<path style="fill:#ef4841; stroke:none;" d="M48.3333 38.6667L48.6667 39.3333L48.3333 38.6667z"/>
<path style="fill:#47714d; stroke:none;" d="M59 38L60 39L59 38z"/>
<path style="fill:#e7cad4; stroke:none;" d="M109.333 38.6667L109.667 39.3333L109.333 38.6667M211 38L213 41L211 38M216 38L217 39L216 38M273 38L274 39L273 38z"/>
<path style="fill:#4e509e; stroke:none;" d="M274 38L268 45L268 46L277 46L277 45L274 45L274 38z"/>
<path style="fill:#e7cad4; stroke:none;" d="M286.333 38.6667L286.667 39.3333L286.333 38.6667M9 39L9 42L10 42L9 39M13 39L14 40L13 39z"/>
<path style="fill:#47714d; stroke:none;" d="M33.3333 39.6667L33.6667 40.3333L33.3333 39.6667M38 39L39 40L38 39z"/>
<path style="fill:#ef4841; stroke:none;" d="M45 39L45 41L47 41L47 39L45 39z"/>
<path style="fill:#e7cad4; stroke:none;" d="M62 39L63 40L62 39M114.333 39.6667L114.667 40.3333L114.333 39.6667M140 39L142 42L140 39M145.333 39.6667L145.667 40.3333L145.333 39.6667M184 39L185 40L184 39M189 39L190 40L189 39z"/>
<path style="fill:#47714d; stroke:none;" d="M212 39L213 40L212 39z"/>
<path style="fill:#e7cad4; stroke:none;" d="M246.333 39.6667L246.667 40.3333L246.333 39.6667z"/>
<path style="fill:#47714d; stroke:none;" d="M250 39L251 40L250 39z"/>
<path style="fill:#e7cad4; stroke:none;" d="M275.333 39.6667L275.667 40.3333L275.333 39.6667M291 39L292 40L291 39M14.3333 40.6667L14.6667 41.3333L14.3333 40.6667z"/>
<path style="fill:#ef4841; stroke:none;" d="M25.6667 40.3333L26.3333 40.6667L25.6667 40.3333z"/>
<path style="fill:#47714d; stroke:none;" d="M37 40L36 42L37 40z"/>
<path style="fill:#e7cad4; stroke:none;" d="M57.3333 40.6667L57.6667 41.3333L57.3333 40.6667M129.333 40.6667L129.667 41.3333L129.333 40.6667M134 40L135 41L134 40z"/>
<path style="fill:#47714d; stroke:none;" d="M141 40L142 41L141 40z"/>
<path style="fill:#e7cad4; stroke:none;" d="M160 40L161 41L160 40M165 40L166 41L165 40M190 40L191 41L190 40z"/>
<path style="fill:#47714d; stroke:none;" d="M251 40L252 41L251 40z"/>
<path style="fill:#e7cad4; stroke:none;" d="M253 40L254 41L253 40M272.333 40.6667L272.667 41.3333L272.333 40.6667z"/>
<path style="fill:#47714d; stroke:none;" d="M10 41L11 42L10 41z"/>
<path style="fill:#ef4841; stroke:none;" d="M23 41L25 43L23 41M37 41L37 43L39 43L37 41M43 41L44 42L43 41M48 41L49 42L48 41z"/>
<path style="fill:#47714d; stroke:none;" d="M61 41L62 42L61 41z"/>
<path style="fill:#e7cad4; stroke:none;" d="M62 41L63 42L62 41M110 41L111 42L110 41M115.333 41.6667L115.667 42.3333L115.333 41.6667M133 41L134 42L133 41M164 41L165 42L164 41M185 41L186 42L185 41M213 41L214 42L213 41M247.333 41.6667L247.667 42.3333L247.333 41.6667M287 41L288 42L287 41M292 41L293 42L292 41M8.33333 42.6667L8.66667 43.3333L8.33333 42.6667M13 42L14 43L13 42z"/>
<path style="fill:#ef4841; stroke:none;" d="M26 42L26 44L28 44L26 42M33 42L34 43L33 42M44 44L47 42L44 44z"/>
<path style="fill:#e7cad4; stroke:none;" d="M63.3333 42.6667L63.6667 43.3333L63.3333 42.6667M111 42L112 43L111 42M128 42L129 43L128 42M142 42L143 43L142 42M146 42L147 43L146 42M159 42L160 43L159 42M186.333 42.6667L186.667 43.3333L186.333 42.6667M191 42L192 43L191 42M252.333 42.6667L252.667 43.3333L252.333 42.6667M274 42L275 43L274 42M14.3333 43.6667L14.6667 44.3333L14.3333 43.6667z"/>
<path style="fill:#ef4841; stroke:none;" d="M29 43L31 45L31 49L32 49L29 43z"/>
<path style="fill:#47714d; stroke:none;" d="M34 43L35 44L34 43z"/>
<path style="fill:#e7cad4; stroke:none;" d="M57 43L58 44L57 43M82 43L83 44L82 43M90 43L91 44L90 43M112 43L113 44L112 43M116 43L117 44L116 43M127 43L128 44L127 43M132 43L133 44L132 43M143 43L144 44L143 43M147 43L148 44L147 43M158 43L159 44L158 43M177 43L180 45L180 44L177 43M192 43L193 44L192 43M214 43L215 44L214 43M271 43L272 44L271 43M288 43L287 45L288 43M293 43L294 44L293 43M9 44L8 48L9 48L9 44z"/>
<path style="fill:#ef4841; stroke:none;" d="M24 44L26 46L24 44M33 44L33 46L36 46L36 44L33 44M37 44L37 46L40 46L40 44L37 44M41.6667 44.3333L42.3333 44.6667L41.6667 44.3333M47 44L48 45L47 44z"/>
<path style="fill:#e7cad4; stroke:none;" d="M54 44L54 47L55 47L54 44M62 44L63 48L64 48L62 44M78 44L78 45L81 45L78 44M92 44L92 45L95 45L92 44M113 44L114 45L113 44M117.667 44.3333L118.333 44.6667L117.667 44.3333M126 44L127 45L126 44M144 44L145 45L144 44M148.667 44.3333L149.333 44.6667L148.667 44.3333M157 44L158 45L157 44M161 44L162 45L161 44z"/>
<path style="fill:#47714d; stroke:none;" d="M172 44L173 45L172 44z"/>
<path style="fill:#e7cad4; stroke:none;" d="M187 44L188 45L187 44M193.667 44.3333L194.333 44.6667L193.667 44.3333M196.667 44.3333L197.333 44.6667L196.667 44.3333M202 44L202 45L205 45L202 44M215 44L216 45L215 44M223 44L223 45L226 45L223 44M231 44L231 45L234 45L231 44M235 44L235 45L238 45L235 44M242.667 44.3333L243.333 44.6667L242.667 44.3333M248 44L249 45L248 44M256 44L256 45L259 45L256 44M268 44L268 45L271 45L268 44M274.667 44.3333L275.333 44.6667L274.667 44.3333z"/>
<path style="fill:#47714d; stroke:none;" d="M288 44L289 45L288 44z"/>
<path style="fill:#e7cad4; stroke:none;" d="M294.667 44.3333L295.333 44.6667L294.667 44.3333z"/>
<path style="fill:#47714d; stroke:none;" d="M9 45L10 46L9 45z"/>
<path style="fill:#e7cad4; stroke:none;" d="M13.3333 45.6667L13.6667 46.3333L13.3333 45.6667M17.3333 45.6667L17.6667 46.3333L17.3333 45.6667z"/>
<path style="fill:#ef4841; stroke:none;" d="M27 45L29 48L27 45M43 47L46 45L43 47z"/>
<path style="fill:#e7cad4; stroke:none;" d="M57 45L59 47L59 45L57 45z"/>
<path style="fill:#47714d; stroke:none;" d="M62 45L63 46L62 45z"/>
<path style="fill:#e7cad4; stroke:none;" d="M114.667 45.3333L115.333 45.6667L114.667 45.3333M120 45L120 46L125 46L120 45M129 45L130 46L129 45M145.667 45.3333L146.333 45.6667L145.667 45.3333M151 45L151 46L155 46L151 45M160 45L161 46L160 45M188 45L189 46L188 45M205 45L189 46L189 47L205 45M222 45C225.183 48.6427 241.817 48.6427 245 45L222 45M251 45L252 46L251 45M255 45C258.183 48.6427 274.817 48.6427 278 45L255 45M285 45L296 47L296 46L285 45z"/>
<path style="fill:#ef4841; stroke:none;" d="M41 46L40 49L41 46z"/>
<path style="fill:#e7cad4; stroke:none;" d="M78 46L78 47L95 47L78 46M116.667 46.3333L117.333 46.6667L116.667 46.3333M126.667 46.3333L127.333 46.6667L126.667 46.3333M147.667 46.3333L148.333 46.6667L147.667 46.3333M157.667 46.3333L158.333 46.6667L157.667 46.3333M169 46L169 47L181 47L169 46M216 46L217 47L216 46M249.667 46.3333L250.333 46.6667L249.667 46.3333M18.3333 47.6667L18.6667 48.3333L18.3333 47.6667z"/>
<path style="fill:#ef4841; stroke:none;" d="M33 47L33 49L36 49L36 47L33 47M37 47L37 49L39 49L39 47L37 47z"/>
<path style="fill:#e7cad4; stroke:none;" d="M53 47L54 48L53 47M57 47L49 54L49 55L54 55L54 51L58 51L57 47M120 47L120 48L125 48L120 47M150 47L150 48L156 48L150 47M14 48L13 51L19 54L19 53L16 52L14 48M62 48L63 49L62 48M9 49L10 50L9 49z"/>
<path style="fill:#47714d; stroke:none;" d="M13.6667 49.3333L14.3333 49.6667L13.6667 49.3333z"/>
<path style="fill:#e7cad4; stroke:none;" d="M19 49L20 50L19 49z"/>
<path style="fill:#ef4841; stroke:none;" d="M29 49L30 50L29 49M42 49L43 50L42 49z"/>
<path style="fill:#e7cad4; stroke:none;" d="M52 49L53 50L52 49z"/>
<path style="fill:#47714d; stroke:none;" d="M58 49L58 51L60 51L58 49z"/>
<path style="fill:#e7cad4; stroke:none;" d="M78 49L78 50L296 50L275 49L231 49L78 49M10 50L11 51L10 50z"/>
<path style="fill:#47714d; stroke:none;" d="M15 50L16 51L15 50z"/>
<path style="fill:#e7cad4; stroke:none;" d="M20 50L21 51L20 50z"/>
<path style="fill:#ef4841; stroke:none;" d="M31 50L32 51L31 50M39.6667 50.3333L40.3333 50.6667L39.6667 50.3333z"/>
<path style="fill:#e7cad4; stroke:none;" d="M51 50L52 51L51 50M61 50L62 51L61 50z"/>
<path style="fill:#ef4841; stroke:none;" d="M78 50L78 51L296 51L275 50L231 50L78 50z"/>
<path style="fill:#e7cad4; stroke:none;" d="M11.3333 51.6667L11.6667 52.3333L11.3333 51.6667z"/>
<path style="fill:#47714d; stroke:none;" d="M13.6667 51.3333L14.3333 51.6667L13.6667 51.3333z"/>
<path style="fill:#e7cad4; stroke:none;" d="M18 51L19 52L18 51M21 51L22 52L21 51M50 51L51 52L50 51z"/>
<path style="fill:#47714d; stroke:none;" d="M54 51L54 55L55 55L58 52L54 51z"/>
<path style="fill:#e7cad4; stroke:none;" d="M60 51L61 52L60 51M78 51L78 52L296 52L275 51L231 51L78 51z"/>
<path style="fill:#47714d; stroke:none;" d="M15 52L16 53L15 52z"/>
<path style="fill:#e7cad4; stroke:none;" d="M19 52L20 53L19 52M22 52L23 53L22 52M49 52L50 53L49 52z"/>
<path style="fill:#47714d; stroke:none;" d="M53 52L54 53L53 52z"/>
<path style="fill:#e7cad4; stroke:none;" d="M59 52L60 53L59 52M13 53L14 54L13 53z"/>
<path style="fill:#47714d; stroke:none;" d="M16 53L17 54L16 53z"/>
<path style="fill:#e7cad4; stroke:none;" d="M20 53L21 54L20 53M23.6667 53.3333L24.3333 53.6667L23.6667 53.3333M47 53L48 54L47 53M58 53L59 54L58 53M14 54L15 55L14 54z"/>
<path style="fill:#47714d; stroke:none;" d="M17.6667 54.3333L18.3333 54.6667L17.6667 54.3333z"/>
<path style="fill:#e7cad4; stroke:none;" d="M21 54L22 55L21 54M25.6667 54.3333L26.3333 54.6667L25.6667 54.3333M45.6667 54.3333L46.3333 54.6667L45.6667 54.3333z"/>
<path style="fill:#47714d; stroke:none;" d="M50 54L51 55L50 54z"/>
<path style="fill:#e7cad4; stroke:none;" d="M57 54L58 55L57 54M78 59L79 59L80 56L87 57L86 55L87 55L87 59L87 62L87 63L88 65L89 65L92 55L91 55L90 58L89 58L89 54C83.9585 54.0178 80.4375 54.1671 78 59M93 54L93 56L99 58L101 57L93 54M102 56L108 56C106.053 53.7691 103.947 53.7691 102 56M111 54L113 64L112 64L111 62L110 62L106 64L106 65L110 64L113 66L113 55L116 55L116 56C114.346 59.9505 114.619 64.4595 119 66L116 64L118 54L111 54M121 56L128 56L127 59L130 54L121 56M131 62L129 60L125 59L129 64L125 64L125 65L133 64L134 55L142 59L142 54C135.634 54.0225 131.778 55.0408 131 62M143 56L150 56L150 61L147 59L151 64L147 64L147 65L153 63L153 56L152 55C148.911 53.704 145.307 53.3594 143 56M170 63L160 64L161 58L167 55C153.669 49.6288 159.1 75.3078 170 63M171 54L171 66C174.08 63.3086 173.067 58.6114 172 55L175 55L175 56C173.67 59.6169 173.72 63.663 177 66L175 61L178 62L180 58L180 54L171 54M184 56L191 56L191 61L188 59L192 62L194 56L195 56L195 64L194 64L193 62L188 64L188 65L194 64L193 66L194 66L196 55L202 60L193 55C189.911 53.704 186.307 53.3594 184 56M201 54L202 62L204 66L205 66L206 54L201 54M206 62L207 62L209 55L216 55L215 59L217 54C210.634 54.0225 206.778 55.0408 206 62M218 56L225 56L225 64L223 64L223 57L222 57L222 66L226 64L229 66L227 59L230 61L225 56L225 55L232 60C229.28 55.4472 222.478 50.8753 218 56M231 56L235 55L234 66L235 66L235 56L237 56L236 66L237 66L237 55L240 55L240 56L240 66L244 64L247 66L247 55L253 66L254 63L257 66L256 62L250 61L253 62C254.413 56.5827 258.011 56.0669 263 55L263 60L259 61L262 60L262 64L263 64L262 61L265 63L263 61C267.513 51.2693 235.253 51.1331 231 56M266 54C267.698 58.4325 268.513 61.3196 265 65L268 66L268 55L271 55L271 56L271 66L274 64L277 66L276 57L273 56L273 55L278 57L266 54M279 56L283 55L280 61L280 62L282 66L283 66L284 54L279 56M288 54L288 55L295 55L288 54M15 55L16 56L15 55M22 55L23 56L22 55M28.6667 55.3333L29.3333 55.6667L28.6667 55.3333M42.6667 55.3333L43.3333 55.6667L42.6667 55.3333z"/>
<path style="fill:#47714d; stroke:none;" d="M53 55L54 56L53 55z"/>
<path style="fill:#e7cad4; stroke:none;" d="M56 55L57 56L56 55z"/>
<path style="fill:#ef4841; stroke:none;" d="M81 55L82 56L81 55M86 55L87 58L88 58L88 55L86 55M92 55C90.0762 59.0268 89.7001 61.7555 93 65L92 55M98 55L99 56L98 55M104 55C104 58.8838 102.419 65.0184 107 66L106 55L104 55M113 55L113 66L116 66L116 55L113 55M123 55C123 58.8838 121.419 65.0184 126 66L125 55L123 55M128 55L129 56L128 55M134 55C131.527 60.1693 131.784 64.6732 138 66L138 65L134 55M139 55L141 57L141 55L139 55M145 55C145 58.8838 143.419 65.0184 148 66L147 55L145 55M150 55L152 57L152 55L150 55M161 55L162 56L161 55M166 55L167 65C170.515 61.5438 170.38 57.5589 166 55z"/>
<path style="fill:#e7cad4; stroke:none;" d="M168 55L169 56L168 55z"/>
<path style="fill:#ef4841; stroke:none;" d="M172 55L175 66L175 55L172 55M178 55L179 56L178 55M186 55C186 58.8838 184.419 65.0184 189 66L188 55L186 55M191 55L193 57L193 55L191 55M196 55L195 66L197 57L198 57L203 66L204 66L198 55L196 55M203.667 55.3333L204.333 55.6667L203.667 55.3333M209 55C206.544 60.1417 207.105 64.2899 213 66L213 65C208.505 62.519 209.188 59.3117 211 55L209 55M214 55L216 57L216 55L214 55M220 55L220 66L222 66L222 55L220 55M225 55L225 56L233 66L234 66L235 55L233 62L225 55M237 55L237 66C241.293 65.0609 239.374 58.7221 240 55L237 55M243 55L245 57L243 55M247 55L250 66L247 55M253 55L254 56L253 55M257 55L257 66L259 66L259 55L257 55M261 55L262 60L263 60L261 55M268 55L271 66L271 55L268 55M273 55L273 56L281 66C282.702 61.0742 277.362 56.2825 273 55M281 55L281 61L282 61L283 55L281 55z"/>
<path style="fill:#e7cad4; stroke:none;" d="M286 55L285 58L286 58L286 55z"/>
<path style="fill:#ef4841; stroke:none;" d="M287 55C284.343 60.5624 285.477 64.9815 292 66L292 65C286.55 63.3453 287.057 59.6227 289 55L287 55M292 55L295 58L292 55z"/>
<path style="fill:#e7cad4; stroke:none;" d="M16 56L17 57L16 56M23.3333 56.6667L23.6667 57.3333L23.3333 56.6667M30.6667 56.3333L31.3333 56.6667L30.6667 56.3333M40 56L41 57L40 56M48.3333 56.6667L48.6667 57.3333L48.3333 56.6667M55 56L56 57L55 56z"/>
<path style="fill:#ef4841; stroke:none;" d="M80 56C77.3463 62.0997 83.198 69.7671 88 63C81.4301 65.3095 81.4045 61.1154 80 56z"/>
<path style="fill:#47714d; stroke:none;" d="M82.5895 57.0856C79.2418 59.4223 82.441 65.8674 86.4275 63.3727C90.5083 60.8189 86.062 54.6619 82.5895 57.0856M93.7307 57.0471C90.6728 59.4835 93.9028 66.5253 97.2693 63.338C100.018 60.7358 97.452 54.0821 93.7307 57.0471z"/>
<path style="fill:#ef4841; stroke:none;" d="M99 56L98 65C100.934 62.1239 101.536 59.3692 99 56z"/>
<path style="fill:#47714d; stroke:none;" d="M125 59L128 56L125 59M147 59L150 56L147 59z"/>
<path style="fill:#ef4841; stroke:none;" d="M160 56L160 64L161 64L160 56z"/>
<path style="fill:#47714d; stroke:none;" d="M167 56C155.146 56.9454 168.245 71.5711 167 56z"/>
<path style="fill:#e7cad4; stroke:none;" d="M169.333 56.6667L169.667 57.3333L169.333 56.6667z"/>
<path style="fill:#47714d; stroke:none;" d="M175 59L178 56L175 59z"/>
<path style="fill:#ef4841; stroke:none;" d="M179 56L180 57L179 56z"/>
<path style="fill:#47714d; stroke:none;" d="M188 59L191 56L188 59M194 56L192 62L188 61L194 64L195 64L194 56M222 56L223 64L225 64L225 56L222 56M240 59L243 56L240 59z"/>
<path style="fill:#e7cad4; stroke:none;" d="M243 56L241 59L245 57L243 56z"/>
<path style="fill:#47714d; stroke:none;" d="M245 56L243 62L240 61L246 64L247 64L247 56L245 56M250 59L251 59L253 57C250.86 55.8822 250.473 56.7492 250 59M255 56L253 62L250 61L256 64L257 64L257 56L255 56M259 56L259 59L262 56L259 56M271 56L271 64L273 64L273 56L271 56z"/>
<path style="fill:#e7cad4; stroke:none;" d="M17.3333 57.6667L17.6667 58.3333L17.3333 57.6667M32 57L33 58L32 57M39 57L40 58L39 57M54 57L55 58L54 57M92 57L93 58L92 57M103 57L103 63L104 63L103 57z"/>
<path style="fill:#47714d; stroke:none;" d="M128 57L129 58L128 57z"/>
<path style="fill:#e7cad4; stroke:none;" d="M134 57L135 58L134 57z"/>
<path style="fill:#47714d; stroke:none;" d="M150 57L151 58L150 57z"/>
<path style="fill:#e7cad4; stroke:none;" d="M167 57L167 60L168 60L167 57z"/>
<path style="fill:#47714d; stroke:none;" d="M191 57L192 58L191 57z"/>
<path style="fill:#e7cad4; stroke:none;" d="M197 57L198 58L197 57M209.333 57.6667L209.667 58.3333L209.333 57.6667M259 57L260 58L259 57M262 57L263 58L262 57M287 57L287 64L288 64L287 57M293 57L293 59L295 59L293 57M22.3333 58.6667L22.6667 59.3333L22.3333 58.6667M33 58L34 59L33 58M37 58L38 59L37 58M49 58L50 59L49 58M80 58L80 62L81 62L80 58M101 58L101 63L102 63L101 58M170 58L170 62L171 62L170 58M278 58L279 59L278 58M16 59L17 60L16 59M24 61L24 62L29 60L24 61M35.6667 59.3333L36.3333 59.6667L35.6667 59.3333M42.6667 59.3333L43.3333 59.6667L42.6667 59.3333M55 59L55 63L56 63L55 59M99.3333 59.6667L99.6667 60.3333L99.3333 59.6667z"/>
<path style="fill:#ef4841; stroke:none;" d="M126 59L128 61L128 59L126 59M148 59L150 61L150 59L148 59z"/>
<path style="fill:#e7cad4; stroke:none;" d="M160 59L160 62L161 62L160 59z"/>
<path style="fill:#ef4841; stroke:none;" d="M176.333 59.6667L176.667 60.3333L176.333 59.6667M189 59L191 61L191 59L189 59z"/>
<path style="fill:#e7cad4; stroke:none;" d="M198 59L199 60L198 59z"/>
<path style="fill:#ef4841; stroke:none;" d="M241 59L241 61L243 61L243 59L241 59M251.333 59.6667L251.667 60.3333L251.333 59.6667z"/>
<path style="fill:#e7cad4; stroke:none;" d="M276 59L277 60L276 59M279 59L280 60L279 59M284 59L284 62L285 62L284 59M23 60L24 61L23 60z"/>
<path style="fill:#47714d; stroke:none;" d="M27 60L28 61L27 60z"/>
<path style="fill:#e7cad4; stroke:none;" d="M30 60L30 61L34 61L30 60M38 60L38 61L42 61L38 60M44 60L45 61L44 60M48 60L49 61L48 60M138 60L136 66L136 67L142 66L144 60L138 60M199 60L200 61L199 60M213 60L211 66L211 67L217 64L214 61L219 62L213 60z"/>
<path style="fill:#ef4841; stroke:none;" d="M260.667 60.3333L261.333 60.6667L260.667 60.3333z"/>
<path style="fill:#e7cad4; stroke:none;" d="M277 60L278 61L277 60M291 60L291 65L295 66L295 65L292 61L296 62L291 60M16.3333 61.6667L16.6667 62.3333L16.3333 61.6667z"/>
<path style="fill:#47714d; stroke:none;" d="M26 61L27 62L26 61z"/>
<path style="fill:#e7cad4; stroke:none;" d="M45.6667 61.3333L46.3333 61.6667L45.6667 61.3333M78.3333 61.6667L78.6667 62.3333L78.3333 61.6667z"/>
<path style="fill:#47714d; stroke:none;" d="M125 61L129 64L125 61z"/>
<path style="fill:#ef4841; stroke:none;" d="M139 61L140 65L141 65L142 61L139 61z"/>
<path style="fill:#47714d; stroke:none;" d="M147 61L151 64L147 61z"/>
<path style="fill:#e7cad4; stroke:none;" d="M167.333 61.6667L167.667 62.3333L167.333 61.6667M209 61L209 64L210 64L209 61z"/>
<path style="fill:#ef4841; stroke:none;" d="M214 61L216 65L217 61L214 61z"/>
<path style="fill:#e7cad4; stroke:none;" d="M232 61L233 62L232 61M241.667 61.3333L242.333 61.6667L241.667 61.3333z"/>
<path style="fill:#ef4841; stroke:none;" d="M262 61L266 66L262 61M292 61L295 65L295 61L292 61z"/>
<path style="fill:#e7cad4; stroke:none;" d="M27 62L32 65L32 64L27 62z"/>
<path style="fill:#47714d; stroke:none;" d="M28 62L29 63L28 62z"/>
<path style="fill:#e7cad4; stroke:none;" d="M43 62L37 63L38 66L45 63L43 62z"/>
<path style="fill:#47714d; stroke:none;" d="M44 62L45 63L44 62z"/>
<path style="fill:#e7cad4; stroke:none;" d="M92.3333 62.6667L92.6667 63.3333L92.3333 62.6667M98.3333 62.6667L98.6667 63.3333L98.3333 62.6667M120 62L120 66C123.332 65.2711 122.707 63.3301 120 62M134.333 62.6667L134.667 63.3333L134.333 62.6667M200 62L201 63L200 62M230 62L231 63L230 62M259 62L260 63L259 62M278 62L279 63L278 62M17 63L18 64L17 63z"/>
<path style="fill:#47714d; stroke:none;" d="M27.3333 63.6667L27.6667 64.3333L27.3333 63.6667M38 63L39 64L38 63M41 63L42 64L41 63z"/>
<path style="fill:#e7cad4; stroke:none;" d="M54 63L55 64L54 63M81 63L82 64L81 63M90 63L91 64L90 63M100 63L101 64L100 63z"/>
<path style="fill:#ef4841; stroke:none;" d="M120 63L119 66L120 63M130 63L128 66L130 63M152 63L150 66L152 63z"/>
<path style="fill:#e7cad4; stroke:none;" d="M201 63L202 64L201 63M207 63L208 64L207 63M231 63L232 64L231 63z"/>
<path style="fill:#ef4841; stroke:none;" d="M254 63L253 66L254 63z"/>
<path style="fill:#e7cad4; stroke:none;" d="M279 63L280 64L279 63M285 63L286 64L285 63M18 64L19 65L18 64z"/>
<path style="fill:#47714d; stroke:none;" d="M32 64L33 65L32 64M34 64L36 66L36 64L34 64M44 64L45 65L44 64z"/>
<path style="fill:#e7cad4; stroke:none;" d="M53 64L54 65L53 64M79 64L80 65L79 64M82 64L83 65L82 64M85 64L86 65L85 64M91 64L92 65L91 64M92 65L99 65L92 65M99 64L100 65L99 64M102 64L102 66L104 66L104 64L102 64z"/>
<path style="fill:#ef4841; stroke:none;" d="M110 64L109 66L111 66L110 64z"/>
<path style="fill:#e7cad4; stroke:none;" d="M135 64L136 65L135 64M143 64L143 66L145 66L145 64L143 64z"/>
<path style="fill:#ef4841; stroke:none;" d="M161 64L162 65L161 64z"/>
<path style="fill:#e7cad4; stroke:none;" d="M184 64L184 66L186 66L186 64L184 64z"/>
<path style="fill:#ef4841; stroke:none;" d="M191 66L194 64L191 66z"/>
<path style="fill:#e7cad4; stroke:none;" d="M197 64L197 66L199 66L197 64M202.333 64.6667L202.667 65.3333L202.333 64.6667M208 64L209 65L208 64M210 64L211 65L210 64M218 64L218 66L220 66L220 64L218 64z"/>
<path style="fill:#ef4841; stroke:none;" d="M226 64L225 66L227 66L226 64M244 64L243 66L245 66L244 64z"/>
<path style="fill:#e7cad4; stroke:none;" d="M259 64L259 66L261 66L261 64L259 64z"/>
<path style="fill:#ef4841; stroke:none;" d="M274 64L273 66L275 66L274 64z"/>
<path style="fill:#e7cad4; stroke:none;" d="M280.333 64.6667L280.667 65.3333L280.333 64.6667M286 64L287 65L286 64M288 64L289 65L288 64M19 65L20 66L19 65z"/>
<path style="fill:#47714d; stroke:none;" d="M29 65L30 66L29 65M31 65L32 66L31 65z"/>
<path style="fill:#e7cad4; stroke:none;" d="M34 65L35 66L34 65z"/>
<path style="fill:#47714d; stroke:none;" d="M37 65L38 66L37 65M40.6667 65.3333L41.3333 65.6667L40.6667 65.3333z"/>
<path style="fill:#e7cad4; stroke:none;" d="M45 65L46 66L45 65M52 65L53 66L52 65M80.6667 65.3333L81.3333 65.6667L80.6667 65.3333M86 65L87 66L86 65M130 65L131 66L130 65M134 65L135 66L134 65M152 65L153 66L152 65M209 65L210 66L209 65M232 65L233 66L232 65M263 65L264 66L263 65M287 65L288 66L287 65M20.6667 66.3333L21.3333 66.6667L20.6667 66.3333M24 66L25 67L24 66M26.6667 66.3333L27.3333 66.6667L26.6667 66.3333M44 66L45 67L44 66M47 66L48 67L47 66M50.6667 66.3333L51.3333 66.6667L50.6667 66.3333M82 66L82 67L85 67L82 66M289 66L289 67L292 67L289 66M29 67L29 68L33 68L29 67M39 67L39 68L42 68L39 67z"/>
</svg>
