<?xml version="1.0" standalone="yes"?>
<svg xmlns="http://www.w3.org/2000/svg" width="220" height="233">
<path style="fill:#f9f9fb; stroke:none;" d="M0 0L0 233L220 233L220 0L0 0z"/>
<path style="fill:#863d7a; stroke:none;" d="M34.6667 1.33333L35.3333 1.66667L34.6667 1.33333z"/>
<path style="fill:#fbe21e; stroke:none;" d="M39 1L39 2L42 2L39 1M80 1L80 2L85 2L80 1M91.6667 1.33333L92.3333 1.66667L91.6667 1.33333M168 1L168 2L175 2L168 1M179 1L180 2L179 1M181 1L181 2L184 2L181 1z"/>
<path style="fill:#863d7a; stroke:none;" d="M184.667 1.33333L185.333 1.66667L184.667 1.33333z"/>
<path style="fill:#2f2c83; stroke:none;" d="M34 2L34 96C34 114.174 32.4794 134.381 41.3233 151C52.8769 172.711 72.7078 175.392 92 186.429C96.6886 189.111 104.884 198.793 110 198.793C115.283 198.793 124.041 188.596 129 185.865C148.674 175.029 169.215 171.715 179.691 149C187.731 131.565 186 111.69 186 93L186 2L128 2.21297L110 9.7253L92 2.21297L34 2z"/>
<path style="fill:#863d7a; stroke:none;" d="M94 2L95 3L94 2M125 2L126 3L125 2M101 6L102 7L101 6M118 6L119 7L118 6M103 7L104 8L103 7M116 7L117 8L116 7M105 8L106 9L105 8M41 118L42 118L42 39C42 32.9035 39.0897 16.1171 43.6034 11.6034C46.87 8.33681 55.7594 10 60 10C69.3668 10 80.8976 8.18703 90 10.4738C95.6945 11.9044 100.499 15.9974 106 18C92.884 5.67929 74.5799 9 58 9C54.1391 9 43.6637 7.13094 41.6034 11.3179C38.0197 18.6009 41 33.9014 41 42L41 118z"/>
<path style="fill:#fbe21e; stroke:none;" d="M107 9L108 10L107 9z"/>
<path style="fill:#863d7a; stroke:none;" d="M118 15L118 16C133.106 10.3143 144.676 10 161 10C165.062 10 173.256 8.46275 176.397 11.6034C181.017 16.2241 178 33.7397 178 40L178 120C181.004 112.841 179 101.744 179 94L179 37C179 30.9658 181.795 15.4306 177.972 10.6034C175.435 7.40045 166.632 9 163 9C147.625 9 131.32 6.21579 118 15z"/>
<path style="fill:#e02520; stroke:none;" d="M43.6034 11.0278C40.1709 13.7464 42 24.0625 42 28L42 76C42 98.8677 37.8994 126.927 48.7284 148C58.0857 166.209 77.2807 170.029 94 178.258C98.7465 180.595 104.669 187.441 110 187.443C114.929 187.444 119.9 181.625 124 179.289C135.474 172.751 148.094 170.668 158.715 162.34C188.946 138.635 178 82.9519 178 49L178 21C178 18.197 178.918 13.0248 176.397 11.0278C173.615 8.82492 167.328 10 164 10C153.063 10 137.251 7.11853 127 11.1335C121.673 13.2199 114.997 19.937 109 19.0108C102.522 18.0104 97.3804 12.0767 91 10.4738C81.6055 8.11366 69.6692 10 60 10C55.8748 10 47 8.33766 43.6034 11.0278z"/>
<path style="fill:#863d7a; stroke:none;" d="M115.667 16.3333L116.333 16.6667L115.667 16.3333M114 17L115 18L114 17M107 18L108 19L107 18M112.667 18.3333L113.333 18.6667L112.667 18.3333M108 19L108 20L112 20L108 19M99 24L100 25L99 24M130 24L131 25L130 24z"/>
<path style="fill:#fbe21e; stroke:none;" d="M51 25C53.4724 30.8349 52.8432 35.093 51 41L56 40L55 33C66.5124 32.1218 58.7818 25.0223 51 25M67.1088 26.0285C58.9057 30.5978 65.2264 44.4573 73.9414 39.8171C82.3548 35.3375 76.1273 21.0051 67.1088 26.0285M85.0548 25.7431C75.9502 29.4363 81.856 43.663 90.956 40.2423C100.327 36.7196 94.5716 21.8826 85.0548 25.7431M97 25L97 26C100.22 30.2499 98.9224 36.0314 98 41L103 40L102 33L110 41L106 32C114.071 26.7131 100.702 25.0024 97 25M112 25L112 26C115.025 29.9929 114.11 35.3358 113 40L117 40L117 39L115 29L124 41L125 41L127 25L122 25L122 26L124 35C120.283 30.6389 118.17 25.4874 112 25M128 25L128 26C131.025 29.9929 130.11 35.3358 129 40L134 41C131.801 35.2604 131.567 30.742 134 25L128 25M135 25L135 26C138.025 29.9929 137.11 35.3358 136 40L140 40L138 29L139 29L145 40L148 30L149 30L148 40L153 41C152.078 36.0314 150.78 30.2499 154 26L154 25C147.524 25.5149 146.701 30.933 144 36C142.214 30.722 141.229 25.4964 135 25M161 25L155 40L158 39L159 35L164 35L165 41L169 40L163 25L161 25z"/>
<path style="fill:#e02520; stroke:none;" d="M55 26L55 32L59 32C58.7374 28.5902 58.3213 27.0989 55 26M68.314 27.0324C63.6948 30.055 66.0883 42.8086 72.7222 38.9529C78.2974 35.7126 74.9864 22.6662 68.314 27.0324M85.4329 27.0324C80.2274 30.5061 84.6111 43.1765 90.6829 38.3773C95.3711 34.6717 91.9768 22.6655 85.4329 27.0324M102 26L102 32L106 32C105.737 28.5902 105.321 27.0989 102 26z"/>
<path style="fill:#863d7a; stroke:none;" d="M52 27L53 28L52 27M115.667 29.3333L116.333 29.6667L115.667 29.3333M138 29L139 30L138 29M161 29L162 30L161 29M62 30L61 32L63 32L62 30z"/>
<path style="fill:#e02520; stroke:none;" d="M160 30L159 34L163 34L162 30L160 30z"/>
<path style="fill:#863d7a; stroke:none;" d="M55.3333 33.6667L55.6667 34.3333L55.3333 33.6667M62 34L63 35L62 34M123 34L124 35L123 34M144.333 34.6667L144.667 35.3333L144.333 34.6667M55 38L56 39L55 38M91 38L92 39L91 38M102 38L103 39L102 38M110 38L111 39L110 38M115 38L116 39L115 38M132 38L133 39L132 38M136 38L137 39L136 38M148 38L149 39L148 38M157 38L158 39L157 38z"/>
<path style="fill:#fbe21e; stroke:none;" d="M50 47L50 53L51 53L50 47M53 47L54 48L53 47M56 47L58 53L58 47L56 47M60 47L60 53L61 53L60 47M63 47L63 53C65.2309 51.0532 65.2309 48.9468 63 47M69 47L69 53L70 53L69 47M74 47L76 53L77 49L76 47L74 47M77 47L78 48L77 47M80 47L80 53L81 53L80 47M83 47L85 49L85 47L83 47M86 47L86 53C88.535 51.0069 88.5822 48.947 86 47M90 47L91 48L90 47M95 47L95 53L96 53L95 47M99 47L99 53L100 53L99 47M102 47L102 51L105 50L102 47M105 47L106 48L105 47M110 47L112 53L113 50L113 49L110 47M113 47L114 48L113 47M115 47L120 53L115 47M119 47L120 48L119 47M123 47L124 53L123 47M126 47L127 48L126 47M129 47L129 53L130 53L129 47M132 47L136 53L137 53L132 47M136 47L137 48L136 47M139 47L141 53L142 50L142 49L139 47M142 47L143 48L142 47M144 47L144 53C146.535 51.0069 146.582 48.947 144 47M150 47L150 53L151 53L150 47M153 47L155 53L153 47M156 47L156 53L158 53L158 47L156 47M159 47L163 53L164 53L159 47M163 47L164 48L163 47M167 47L168 53L167 47M170 47L171 48L170 47z"/>
<path style="fill:#863d7a; stroke:none;" d="M75 48L76 49L75 48M111 48L112 49L111 48M128 48L128 52L129 52L128 48M138 48L139 49L138 48M151.667 48.3333L152.333 48.6667L151.667 48.3333M162 48L163 49L162 48M101 49L102 50L101 49z"/>
<path style="fill:#e02520; stroke:none;" d="M151 49L151 51L153 49L151 49z"/>
<path style="fill:#fbe21e; stroke:none;" d="M84 50L83 53L84 50M126 50L126 53L127 53L126 50z"/>
<path style="fill:#863d7a; stroke:none;" d="M133 50L133 52L135 52L133 50z"/>
<path style="fill:#e02520; stroke:none;" d="M134 50L135 51L134 50z"/>
<path style="fill:#863d7a; stroke:none;" d="M167.333 50.6667L167.667 51.3333L167.333 50.6667z"/>
<path style="fill:#fbe21e; stroke:none;" d="M170 50L170 53L171 53L172 50L170 50z"/>
<path style="fill:#863d7a; stroke:none;" d="M111 51L112 52L111 51M138 51L139 52L138 51M151 51L153 53L153 51L151 51z"/>
<path style="fill:#fbe21e; stroke:none;" d="M53 52L54 53L53 52M67 52L68 53L67 52M72 52L73 53L72 52M77 52L78 53L77 52M90 52L91 53L90 52M102.667 52.3333L103.333 52.6667L102.667 52.3333z"/>
<path style="fill:#863d7a; stroke:none;" d="M112 52L113 53L112 52z"/>
<path style="fill:#fbe21e; stroke:none;" d="M113 52L114 53L113 52M115 52L116 53L115 52M132.333 52.6667L132.667 53.3333L132.333 52.6667M142 52L143 53L142 52M148 52L149 53L148 52M159 52L160 53L159 52z"/>
<path style="fill:#863d7a; stroke:none;" d="M110 58L111 59L110 58z"/>
<path style="fill:#fbe21e; stroke:none;" d="M104 59.4282C95.3145 60.6725 87.4115 63.4924 80 68.24C31.365 99.3937 60.8012 178.766 118 170.572C126.909 169.295 135.543 166.384 143 161.226C189.545 129.03 160.864 51.2819 104 59.4282z"/>
<path style="fill:#863d7a; stroke:none;" d="M97 60L98 61L97 60M111 62L110 64L111 62z"/>
<path style="fill:#e02520; stroke:none;" d="M111 68L118 69C116.802 63.1326 111.59 60.4377 111 68M101 63L100 67L108 68L107 63L101 63z"/>
<path style="fill:#863d7a; stroke:none;" d="M120.667 63.3333L121.333 63.6667L120.667 63.3333z"/>
<path style="fill:#e02520; stroke:none;" d="M96 64L92 70C96.0778 70.4145 97.7067 67.7825 96 64M120 64C121.839 68.046 123.511 69.6535 128 70C126.501 65.7336 124.479 64.3407 120 64z"/>
<path style="fill:#863d7a; stroke:none;" d="M96 65L97 66L96 65M131 66L131 68L133 68L131 66M88.3333 67.6667L88.6667 68.3333L88.3333 67.6667M100 67L101 68L100 67z"/>
<path style="fill:#e02520; stroke:none;" d="M133 67C132.714 71.8299 135.455 73.4828 140 74L133 67M82 74L88 68L82 74z"/>
<path style="fill:#863d7a; stroke:none;" d="M106 68L107 69L106 68M112 68L112 69L116 69L112 68M118 68L119 69L118 68M92 70L93 71L92 70M127.667 70.3333L128.333 70.6667L127.667 70.3333M86 72L87 73L86 72z"/>
<path style="fill:#2f2c83; stroke:none;" d="M25 73C18.2148 81.3684 21.6893 82.9066 20.3765 92C19.7427 96.3909 16.7635 100.054 15 104C24.7411 97.5522 31.0418 84.3642 25 73M194 73C193.071 84.7746 192.083 97.5266 205 103C198.518 92.2225 204.38 80.6463 194 73z"/>
<path style="fill:#863d7a; stroke:none;" d="M81.6667 74.3333L82.3333 74.6667L81.6667 74.3333z"/>
<path style="fill:#e02520; stroke:none;" d="M92 74L93 75L92 74z"/>
<path style="fill:#863d7a; stroke:none;" d="M93 74L94 75L93 74M126.667 74.3333L127.333 74.6667L126.667 74.3333z"/>
<path style="fill:#e02520; stroke:none;" d="M128 74L127 75L132 78L128 74z"/>
<path style="fill:#863d7a; stroke:none;" d="M139 74L141 76L141 74L139 74M26.3333 75.6667L26.6667 76.3333L26.3333 75.6667M88 78L93 76L88 78M130.667 75.3333L131.333 75.6667L130.667 75.3333M22 76L23 77L22 76M75 76L73 79L75 76M146 76L150 80L146 76M193.333 76.6667L193.667 77.3333L193.333 76.6667M21 77L22 78L21 77M84 77L82 78L82 79L84 77M132 77L133 78L132 77M20 78L21 79L20 78M199 78L200 79L199 78M19 79L20 80L19 79M200 79L201 80L200 79M18 80L19 81L18 80M201 80L202 81L201 80M17.3333 81.6667L17.6667 82.3333L17.3333 81.6667M202.333 81.6667L202.667 82.3333L202.333 81.6667M19 85L20 86L19 85z"/>
<path style="fill:#fbe21e; stroke:none;" d="M200 86L201 87L200 86z"/>
<path style="fill:#863d7a; stroke:none;" d="M26.3333 87.6667L26.6667 88.3333L26.3333 87.6667M193.333 87.6667L193.667 88.3333L193.333 87.6667M20 88L21 89L20 88z"/>
<path style="fill:#f9f9fb; stroke:none;" d="M103 88L104 89L103 88z"/>
<path style="fill:#863d7a; stroke:none;" d="M105 88L109 92L105 88M199 88L199 93L200 93L199 88z"/>
<path style="fill:#2f2c83; stroke:none;" d="M102 89C104.383 96.3671 103.856 101.962 96 105L98 111L94 111L94 112L97 113L95 116L100 115L105 139C111.925 136.992 109.519 132.165 112.758 127.325C115.355 123.447 121.876 118.197 126 116L125 108L112 104L113 100L110 99L112 91L102 89z"/>
<path style="fill:#f9f9fb; stroke:none;" d="M107 89L108 90L107 89z"/>
<path style="fill:#863d7a; stroke:none;" d="M102 90L103 93L104 93L102 90z"/>
<path style="fill:#f9f9fb; stroke:none;" d="M108.667 90.3333L109.333 90.6667L108.667 90.3333z"/>
<path style="fill:#863d7a; stroke:none;" d="M20.3333 91.6667L20.6667 92.3333L20.3333 91.6667z"/>
<path style="fill:#f9f9fb; stroke:none;" d="M102.333 91.6667L102.667 92.3333L102.333 91.6667z"/>
<path style="fill:#fbe21e; stroke:none;" d="M109 91L110 92L109 91z"/>
<path style="fill:#863d7a; stroke:none;" d="M112.333 91.6667L112.667 92.3333L112.333 91.6667M25 92L26 93L25 92M158 92L159 93L158 92M194 92L195 93L194 92z"/>
<path style="fill:#f9f9fb; stroke:none;" d="M111.333 94.6667L111.667 95.3333L111.333 94.6667z"/>
<path style="fill:#863d7a; stroke:none;" d="M195 94L196 95L195 94M19 95L20 96L19 95M103 95L104 96L103 95M200 95L201 96L200 95M111 96L112 97L111 96z"/>
<path style="fill:#f9f9fb; stroke:none;" d="M104 97L105 98L104 97M110 97L112 99L112 97L110 97z"/>
<path style="fill:#863d7a; stroke:none;" d="M201 97L202 98L201 97M61.3333 98.6667L61.6667 99.3333L61.3333 98.6667M110 98L111 99L110 98z"/>
<path style="fill:#e02520; stroke:none;" d="M159 98L158 100L160 100L159 98z"/>
<path style="fill:#863d7a; stroke:none;" d="M111 99L112 100L111 99M158 100L158 101L162 102L161 99L158 100z"/>
<path style="fill:#fbe21e; stroke:none;" d="M202 99L203 100L202 99z"/>
<path style="fill:#863d7a; stroke:none;" d="M19 100L20 101L19 100z"/>
<path style="fill:#f9f9fb; stroke:none;" d="M102 100L103 101L102 100z"/>
<path style="fill:#863d7a; stroke:none;" d="M200 100L201 101L200 100M16 101L17 102L16 101z"/>
<path style="fill:#f9f9fb; stroke:none;" d="M101 101L102 102L101 101z"/>
<path style="fill:#863d7a; stroke:none;" d="M101 102L102 103L101 102M112 102L114 105L112 102M134.667 102.333L135.333 102.667L134.667 102.333z"/>
<path style="fill:#2f2c83; stroke:none;" d="M126 105L125 105L128 110L132 109L130 113L132 114L133 114L139 105L126 105z"/>
<path style="fill:#863d7a; stroke:none;" d="M137 102L138 103L137 102M14 103L13 107L14 107L14 103z"/>
<path style="fill:#f9f9fb; stroke:none;" d="M99 103L100 104L99 103z"/>
<path style="fill:#863d7a; stroke:none;" d="M100 103L101 104L100 103z"/>
<path style="fill:#f9f9fb; stroke:none;" d="M113 103L114 104L113 103z"/>
<path style="fill:#863d7a; stroke:none;" d="M138 103L139 104L138 103M204 103L207 105L204 103M98 104L99 105L98 104M157.333 104.667L157.667 105.333L157.333 104.667z"/>
<path style="fill:#e02520; stroke:none;" d="M158 104C155.268 116.03 168.166 108.315 158 104z"/>
<path style="fill:#2f2c83; stroke:none;" d="M13 105L14 106L13 105z"/>
<path style="fill:#863d7a; stroke:none;" d="M115 105L116 106L115 105z"/>
<path style="fill:#f9f9fb; stroke:none;" d="M117 105L118 106L117 105z"/>
<path style="fill:#863d7a; stroke:none;" d="M137 105L138 106L137 105M162 105L163 106L162 105z"/>
<path style="fill:#2f2c83; stroke:none;" d="M206 105C207.049 112.77 191.183 125.279 200 131C196.024 136.924 194.064 140.888 202 144C193.64 161.88 173.956 166.581 164.144 182.015C158.279 191.24 168.292 202.538 153 207.458C146.253 209.629 144.075 200.947 138 200.708C130.513 200.413 121.918 205.613 114 205.961C102.375 206.47 93.0346 201.828 82 200.757C74.9551 200.073 72.6464 210.47 65.0008 206.448C52.2035 199.715 62.0533 190.419 55.1998 181.039C44.4663 166.349 27.1313 161.153 18 144C25.9363 140.888 23.976 136.924 20 131C28.5337 125.462 14.217 112.719 13 106C1.16127 111.537 6.16718 118.84 10 128C1.93153 130.405 1.10367 136.273 9 140L9 142C-0.380521 145.296 4.53039 153.854 8.43596 160C16.506 172.699 29.6721 184.201 41 194L41 195C25.5806 203.625 40.0416 220.637 52 225.525C60.7829 229.114 64.6176 222.2 72 223.63C94.0324 227.899 129.662 240.544 149 221L150 221C165.167 239.734 199.813 206.642 179 195L179 194C190.512 184.717 203.573 172.442 211.655 160C215.624 153.889 220.28 145.261 211 142L211 140C218.781 136.328 218.25 130.161 210 128C214.253 118.129 218.653 110.904 206 105z"/>
<path style="fill:#863d7a; stroke:none;" d="M96 106L97 107L96 106z"/>
<path style="fill:#f9f9fb; stroke:none;" d="M120.667 106.333L121.333 106.667L120.667 106.333M127 106L128 107L127 106M129.667 106.333L130.333 106.667L129.667 106.333z"/>
<path style="fill:#863d7a; stroke:none;" d="M206 106L207 107L206 106M121.667 107.333L122.333 107.667L121.667 107.333M125 107L126 108L125 107z"/>
<path style="fill:#f9f9fb; stroke:none;" d="M136 107L137 108L136 107z"/>
<path style="fill:#863d7a; stroke:none;" d="M13.3333 108.667L13.6667 109.333L13.3333 108.667M97 108L98 109L97 108z"/>
<path style="fill:#f9f9fb; stroke:none;" d="M125.667 108.333L126.333 108.667L125.667 108.333z"/>
<path style="fill:#863d7a; stroke:none;" d="M127 108L128 109L127 108M135 108L136 109L135 108M145 108L146 109L145 108M211 108L212 109L211 108M7 109L8 110L7 109z"/>
<path style="fill:#f9f9fb; stroke:none;" d="M97 109L98 110L97 109z"/>
<path style="fill:#863d7a; stroke:none;" d="M125 109L126 110L125 109M130 109L130 112L131 112L132 109L130 109z"/>
<path style="fill:#e02520; stroke:none;" d="M145 109C146.437 112.576 148.286 112.877 152 113L145 109z"/>
<path style="fill:#863d7a; stroke:none;" d="M153 109L152 113L153 113L153 109M206 109L207 110L206 109M212 109L213 110L212 109M6 110L7 111L6 110M95.6667 110.333L96.3333 110.667L95.6667 110.333z"/>
<path style="fill:#fbe21e; stroke:none;" d="M97 110L98 111L97 110z"/>
<path style="fill:#f9f9fb; stroke:none;" d="M125 110L126 111L125 110M130 110L131 111L130 110z"/>
<path style="fill:#e02520; stroke:none;" d="M152 110L153 111L152 110z"/>
<path style="fill:#863d7a; stroke:none;" d="M213 110L214 111L213 110M14 111L15 112L14 111M125 111L126 112L125 111M133.667 111.333L134.333 111.667L133.667 111.333M205 111L206 112L205 111M214 111L215 112L214 111M94 112L95 113L94 112z"/>
<path style="fill:#fbe21e; stroke:none;" d="M131 112L132 113L131 112z"/>
<path style="fill:#863d7a; stroke:none;" d="M145 112L146 113L145 112M4 113L5 114L4 113M15 113L16 114L15 113z"/>
<path style="fill:#f9f9fb; stroke:none;" d="M95 113L96 114L95 113z"/>
<path style="fill:#863d7a; stroke:none;" d="M96 113L97 114L96 113z"/>
<path style="fill:#f9f9fb; stroke:none;" d="M131 113L132 114L131 113z"/>
<path style="fill:#863d7a; stroke:none;" d="M204 113L205 114L204 113M215 113L216 114L215 113M16 114L17 115L16 114M132 114L133 115L132 114z"/>
<path style="fill:#fbe21e; stroke:none;" d="M17 115L18 116L17 115z"/>
<path style="fill:#863d7a; stroke:none;" d="M58 115L58 117L60 115L58 115z"/>
<path style="fill:#e02520; stroke:none;" d="M64 123C63.8451 109.928 54.0618 121.313 64 123z"/>
<path style="fill:#863d7a; stroke:none;" d="M99 115L98 117L99 115M126 115L127 116L126 115z"/>
<path style="fill:#e02520; stroke:none;" d="M158 115L157 121C161.412 121.434 162.999 119.109 164 115L158 115z"/>
<path style="fill:#863d7a; stroke:none;" d="M4 116L5 117L4 116z"/>
<path style="fill:#f9f9fb; stroke:none;" d="M99.3333 116.667L99.6667 117.333L99.3333 116.667z"/>
<path style="fill:#863d7a; stroke:none;" d="M123 116L124 117L123 116z"/>
<path style="fill:#e02520; stroke:none;" d="M145 127C152.394 126.329 153.975 122.987 154 116C146.197 116.092 145.061 119.727 145 127z"/>
<path style="fill:#f9f9fb; stroke:none;" d="M123 117L124 118L123 117z"/>
<path style="fill:#fbe21e; stroke:none;" d="M215 117L216 118L215 117z"/>
<path style="fill:#863d7a; stroke:none;" d="M68.3333 118.667L68.6667 119.333L68.3333 118.667M200 118L201 119L200 118M20 119L21 120L20 119M64 119L63 124L64 119z"/>
<path style="fill:#e02520; stroke:none;" d="M69 119C67.8737 123.634 69.3226 126.002 74 127L69 119z"/>
<path style="fill:#863d7a; stroke:none;" d="M121 119L122 120L121 119M162.333 119.667L162.667 120.333L162.333 119.667M6 120L7 121L6 120z"/>
<path style="fill:#f9f9fb; stroke:none;" d="M120 120L121 121L120 120z"/>
<path style="fill:#863d7a; stroke:none;" d="M21 121L22 122L21 121M59 121L60 122L59 121M157.333 121.667L157.667 122.333L157.333 121.667M198 121L199 122L198 121M7 122L8 123L7 122M212 122L213 123L212 122M22 123L23 124L22 123M42 123L42 131L43 131L42 123z"/>
<path style="fill:#f9f9fb; stroke:none;" d="M99 123L100 124L99 123z"/>
<path style="fill:#863d7a; stroke:none;" d="M100 123L100 126L101 126L100 123z"/>
<path style="fill:#f9f9fb; stroke:none;" d="M117 123L118 124L117 123z"/>
<path style="fill:#863d7a; stroke:none;" d="M141 123L142 124L141 123M197 123L198 124L197 123M8 124L9 125L8 124M34 124L34 127L35 127L34 124M115 124L114 126L115 124z"/>
<path style="fill:#f9f9fb; stroke:none;" d="M116 124L117 125L116 124z"/>
<path style="fill:#e02520; stroke:none;" d="M140 124L137 129L140 130L142 124L140 124z"/>
<path style="fill:#863d7a; stroke:none;" d="M162 124L161 126L163 126L162 124M211 124L212 125L211 124z"/>
<path style="fill:#f9f9fb; stroke:none;" d="M115 125L116 126L115 125z"/>
<path style="fill:#e02520; stroke:none;" d="M156 132C159.846 130.649 161.604 129.168 161 125C157.457 126.685 156.312 128.069 156 132z"/>
<path style="fill:#863d7a; stroke:none;" d="M177 125L177 131L178 131L177 125M185 125L185 128L186 128L185 125M23 126L23 130L24 130L23 126z"/>
<path style="fill:#e02520; stroke:none;" d="M60 126C60.4985 130.371 62.0413 132.158 66 134L67 133L66 128L60 126z"/>
<path style="fill:#f9f9fb; stroke:none;" d="M100 126L101 127L100 126z"/>
<path style="fill:#863d7a; stroke:none;" d="M112 126L111 130L112 130L112 126M196 126L196 129L197 129L196 126M210 126L211 127L210 126M73 127L74 128L73 127M101 127L102 128L101 127z"/>
<path style="fill:#f9f9fb; stroke:none;" d="M112 127L113 128L112 127z"/>
<path style="fill:#863d7a; stroke:none;" d="M114.667 127.333L115.333 127.667L114.667 127.333z"/>
<path style="fill:#e02520; stroke:none;" d="M114 134L125 132C120.219 127.533 114.268 125.957 114 134z"/>
<path style="fill:#863d7a; stroke:none;" d="M145 127L146 128L145 127M7 128L8 129L7 128z"/>
<path style="fill:#f9f9fb; stroke:none;" d="M101 128L102 129L101 128z"/>
<path style="fill:#863d7a; stroke:none;" d="M212 128L213 129L212 128M5 129L6 130L5 129M137 129L138 130L137 129M151.667 129.333L152.333 129.667L151.667 129.333M3 130L4 131L3 130M70 130L71 131L70 130z"/>
<path style="fill:#e02520; stroke:none;" d="M71 130C69.8117 135.749 73.0474 137.9 78 140C79.3136 134.267 76.0974 131.82 71 130z"/>
<path style="fill:#863d7a; stroke:none;" d="M86 130L86 131L90 131L86 130z"/>
<path style="fill:#e02520; stroke:none;" d="M98 132L102 133L101 130L98 132z"/>
<path style="fill:#863d7a; stroke:none;" d="M101 130L102 133L103 133L103 130L101 130z"/>
<path style="fill:#e02520; stroke:none;" d="M142 139C147.786 138.274 151.325 135.998 152 130C145.711 130.572 143.721 133.142 142 139z"/>
<path style="fill:#863d7a; stroke:none;" d="M216 130L217 131L216 130M2 131L3 132L2 131M43 131L43 135L44 135L43 131M125 131L124 133L126 133L125 131M217 131L218 132L217 131M35.3333 132.667L35.6667 133.333L35.3333 132.667M97.6667 132.333L98.3333 132.667L97.6667 132.333M111 132L112 133L111 132M155.667 132.333L156.333 132.667L155.667 132.333M176 132L176 136L177 136L176 132M66 133L67 134L66 133M103 133L104 134L103 133z"/>
<path style="fill:#f9f9fb; stroke:none;" d="M111.333 133.667L111.667 134.333L111.333 133.667z"/>
<path style="fill:#863d7a; stroke:none;" d="M137 134L137 135L140 135L140 134L137 134M184 133L185 134L184 133z"/>
<path style="fill:#e02520; stroke:none;" d="M83 134C83.1934 141.994 86.9833 143.023 94 145L95 144L94 136L83 134M138 134L138 138L139 138L138 134z"/>
<path style="fill:#863d7a; stroke:none;" d="M89.6667 135.333L90.3333 135.667L89.6667 135.333M104 135C104.673 139.021 107.314 140.763 110 137L105 139L104 135M158 135L158 137L160 135L158 135M3 136L4 137L3 136M44 136L44 139L45 139L44 136M98 136L99 137L98 136M110 136L111 137L110 136z"/>
<path style="fill:#e02520; stroke:none;" d="M114 137C113.022 150.98 125.275 146.496 128 136L114 137z"/>
<path style="fill:#863d7a; stroke:none;" d="M131 136L132 137L131 136z"/>
<path style="fill:#e02520; stroke:none;" d="M132 136L130 144L138 142L132 136M152 144L159 137C154.433 136.93 152.861 139.749 152 144z"/>
<path style="fill:#863d7a; stroke:none;" d="M175 136L174 143L175 143L175 136M216 136L217 137L216 136z"/>
<path style="fill:#fbe21e; stroke:none;" d="M4 137L5 138L4 137z"/>
<path style="fill:#863d7a; stroke:none;" d="M36.3333 137.667L36.6667 138.333L36.3333 137.667M63.6667 137.333L64.3333 137.667L63.6667 137.333z"/>
<path style="fill:#e02520; stroke:none;" d="M97 137L98 146C104.572 146 109.74 146.906 110 139L97 137z"/>
<path style="fill:#863d7a; stroke:none;" d="M215 137L216 138L215 137M25.3333 138.667L25.6667 139.333L25.3333 138.667z"/>
<path style="fill:#e02520; stroke:none;" d="M64 138L70 145C69.5142 140.743 68.2513 138.907 64 138z"/>
<path style="fill:#863d7a; stroke:none;" d="M183 138L184 139L183 138M194.333 138.667L194.667 139.333L194.333 138.667M214 138L215 139L214 138M45 139L45 142L46 142L45 139M78 139L79 140L78 139M137 139L138 140L137 139M142 139L143 140L142 139M8.33333 140.667L8.66667 141.333L8.33333 140.667M24 140L25 141L24 140M195 140L196 141L195 140M211.333 140.667L211.667 141.333L211.333 140.667M37 141L38 142L37 141M113 141L114 142L113 141M147 141L147 143L149 141L147 141M6 142L7 143L6 142M21 142L22 143L21 142M73 142L74 143L73 142z"/>
<path style="fill:#e02520; stroke:none;" d="M74 142C75.075 147.918 78.082 150.925 84 152C82.0801 146.181 80.0069 143.666 74 142M138 151L139 152C143.72 150.003 146.476 148.011 148 143L147 142C141.891 143.531 139.751 146.034 138 151z"/>
<path style="fill:#863d7a; stroke:none;" d="M182 142L183 143L182 142M198 142L199 143L198 142M213 142L214 143L213 142M4 143L5 144L4 143M46 143L47 144L46 143M129 143L130 144L129 143M142 143L143 144L142 143M173.333 143.667L173.667 144.333L173.333 143.667M215 143L216 144L215 143M3 144L4 145L3 144M18.3333 144.667L18.6667 145.333L18.3333 144.667M38 144L39 145L38 144M47 144L47 147L48 147L47 144M70.3333 144.667L70.6667 145.333L70.3333 144.667M94 144L95 145L94 144M113.333 144.667L113.667 145.333L113.333 144.667M151 144L152 145L151 144M181 144L182 145L181 144M201.333 144.667L201.667 145.333L201.333 144.667M216 144L217 145L216 144M109 145L110 146L109 145M172.333 145.667L172.667 146.333L172.333 145.667M86.3333 146.667L86.6667 147.333L86.3333 146.667M108 146L109 147L108 146z"/>
<path style="fill:#e02520; stroke:none;" d="M126 155C131.924 156.094 134.208 152.113 136 147C129.795 146.097 127.788 149.611 126 155z"/>
<path style="fill:#863d7a; stroke:none;" d="M135 146L136 147L135 146M39 147L40 148L39 147z"/>
<path style="fill:#e02520; stroke:none;" d="M86 148C87.6389 153.456 90.372 155.488 96 156L95 148L86 148z"/>
<path style="fill:#863d7a; stroke:none;" d="M171 147L170 151L171 151L171 147M180 147L181 148L180 147M200 147L201 148L200 147M48 148L49 149L48 148M40 149L41 150L40 149M49.3333 149.667L49.6667 150.333L49.3333 149.667M98.6667 149.333L99.3333 149.667L98.6667 149.333z"/>
<path style="fill:#e02520; stroke:none;" d="M98 150C99.8032 157.19 101.664 157.994 109 158L109 150L98 150M112 158L122 158L124 149C116.678 149.151 112.196 149.933 112 158z"/>
<path style="fill:#863d7a; stroke:none;" d="M179 149L180 150L179 149M3 150L4 151L3 150M21 150L22 151L21 150M149 150L147 153L149 150M216 150L217 151L216 150M41 151L42 152L41 151M50 151L51 152L50 151M138 151L139 152L138 151M169 151L170 152L169 151M178 151L179 152L178 151M51 152L54 156L51 152M74 152L75 153L74 152M83 152L84 153L83 152M168.333 152.667L168.667 153.333L168.333 152.667M197 152L198 153L197 152M23 153L24 154L23 153M177 153L178 154L177 153M196 153L197 154L196 153M43 154L44 155L43 154M141 154L142 155L141 154M167 154L168 155L167 154M80 155L82 157L82 155L80 155M126 155L127 156L126 155z"/>
<path style="fill:#e02520; stroke:none;" d="M133 161C137.569 161.265 139.878 158.9 142 155L133 161z"/>
<path style="fill:#863d7a; stroke:none;" d="M166 155L167 156L166 155M6 156L7 157L6 156M22 156L23 157L22 156M44 156L45 157L44 156M54 156L55 157L54 156z"/>
<path style="fill:#e02520; stroke:none;" d="M81 157L87 162C86.3505 158.17 84.9018 156.766 81 157z"/>
<path style="fill:#863d7a; stroke:none;" d="M165 156L162 160L165 156M175 156L176 157L175 156z"/>
<path style="fill:#f9f9fb; stroke:none;" d="M185 168L189 167L187 173L188 170L183 171L183 170L186 170L186 169C179.982 169.855 174.532 174.216 171 179L176 179L174 182L182 184L182 183L178 179L184 182L178 174L181 173L187 179L181 172L189 175L197 170L192 162L198 165L198 162L202 166L206 165L206 164L198 156L185 168M22 157L26 163L21 159L22 164L18 162L19 166L23 165L22 161L22 169L23 169L29 164L24 171L30 166L31 166L35 172C32.3392 170.507 29.8667 168.059 29 172L33 172L30 177L38 172L35 177L39 178L36 185L37 185C38.1785 180.835 40.6302 177.857 45 177L22 157z"/>
<path style="fill:#863d7a; stroke:none;" d="M26 157L27 158L26 157M45 157L46 158L45 157M55 157L56 158L55 157M85 157L86 158L85 157M197 157L198 158L197 157M7 158L8 159L7 158M27 158L28 159L27 158M56 158L57 159L56 158M192 158L193 159L192 158M212 158L213 159L212 158M22 159L25 162L22 159z"/>
<path style="fill:#2f2c83; stroke:none;" d="M23 159L24 160L23 159z"/>
<path style="fill:#863d7a; stroke:none;" d="M25 159L26 160L25 159M28 159L29 160L28 159M57 159L58 160L57 159z"/>
<path style="fill:#e02520; stroke:none;" d="M90 159L91 160L90 159z"/>
<path style="fill:#863d7a; stroke:none;" d="M91 159L91 162L92 162L91 159z"/>
<path style="fill:#e02520; stroke:none;" d="M92 159C92.3002 162.864 93.0892 164.348 97 165L92 159z"/>
<path style="fill:#863d7a; stroke:none;" d="M93 159L94 160L93 159z"/>
<path style="fill:#e02520; stroke:none;" d="M122 166L130 160L129 159C124.92 160.349 123.269 161.864 122 166z"/>
<path style="fill:#863d7a; stroke:none;" d="M129 159L130 160L129 159M191 159L192 160L191 159z"/>
<path style="fill:#2f2c83; stroke:none;" d="M194 160L194 161L198 161L194 160z"/>
<path style="fill:#863d7a; stroke:none;" d="M20.3333 160.667L20.6667 161.333L20.3333 160.667z"/>
<path style="fill:#2f2c83; stroke:none;" d="M24 160L25 161L24 160z"/>
<path style="fill:#863d7a; stroke:none;" d="M26 160L27 161L26 160M29 160L30 161L29 160M58 160L59 161L58 160M160 160L160 162L162 160L160 160M172 160L173 161L172 160M190 160L191 161L190 160M211 160L212 161L211 160M9 161L10 162L9 161M18 161L19 162L18 161z"/>
<path style="fill:#2f2c83; stroke:none;" d="M22 161L22 166L25 164L25 163L22 161M25.3333 161.667L25.6667 162.333L25.3333 161.667z"/>
<path style="fill:#863d7a; stroke:none;" d="M27 161L28 162L27 161M30 161L31 162L30 161M48 161L49 162L48 161M59 161L60 162L59 161M87 161L88 162L87 161M100 161L101 162L100 161z"/>
<path style="fill:#e02520; stroke:none;" d="M107 168L108 162C99.628 161.037 99.049 165.823 107 168M118 161C104.466 164.705 119.954 171.292 118 161z"/>
<path style="fill:#863d7a; stroke:none;" d="M118 161L120 163L120 161L118 161M133 161L132 163L134 163L133 161M171 161L172 162L171 161M210 161L211 162L210 161z"/>
<path style="fill:#2f2c83; stroke:none;" d="M20 162L20 164L22 164L20 162z"/>
<path style="fill:#863d7a; stroke:none;" d="M22 162L23 163L22 162M28 162L29 163L28 162M49 162L50 163L49 162M60 162L63 164L60 162M157 164L160 162L157 164M170 162L171 163L170 162M29 163L30 164L29 163M50 163L51 164L50 163M194 163L195 164L194 163M197 163L198 164L197 163M202 163L203 164L202 163M11 164L12 165L11 164M18 164L20 167L18 164M24 164L25 165L24 164M28 164L29 165L28 164M30 164L31 165L30 164M51 164L52 165L51 164M63 164L64 165L63 164M153 167L157 164L153 167M168 164L169 165L168 164z"/>
<path style="fill:#2f2c83; stroke:none;" d="M190 164L189 165L193 169L190 164z"/>
<path style="fill:#863d7a; stroke:none;" d="M206 164L207 165L206 164M208 164L209 165L208 164M12 165L13 166L12 165M20.6667 165.333L21.3333 165.667L20.6667 165.333M23 165L24 166L23 165M25 165L26 166L25 165M31 165L32 166L31 165M35 165L36 166L35 165M52 165L53 166L52 165M64.6667 165.333L65.3333 165.667L64.6667 165.333M85 165L86 166L85 165M96 165L97 166L96 165M167 165L168 166L167 165M184 165L185 166L184 165M191 165L192 166L191 165M203 165L204 166L203 165M22 166L23 167L22 166M24 166L25 167L24 166M30 166L31 167L30 166M53 166L54 167L53 166M66 166L69 168L66 166M166 166L167 167L166 166M190 166L191 167L190 166M192 166L193 167L192 166M21.3333 167.667L21.6667 168.333L21.3333 167.667M23 167L24 168L23 167M31 167L32 168L31 167M38 167L39 168L38 167M111 167L112 168L111 167M115 167L116 168L115 167M151.667 167.333L152.333 167.667L151.667 167.333M165 167L166 168L165 167z"/>
<path style="fill:#2f2c83; stroke:none;" d="M185 169L188 170L187 172L187 173L189 167L185 169z"/>
<path style="fill:#863d7a; stroke:none;" d="M32 168L33 169L32 168M39 168L40 169L39 168M69.6667 168.333L70.3333 168.667L69.6667 168.333M149.667 168.333L150.333 168.667L149.667 168.333M180 168L181 169L180 168M183.667 168.333L184.333 168.667L183.667 168.333M189 168L190 169L189 168M71.6667 169.333L72.3333 169.667L71.6667 169.333M96.6667 169.333L97.3333 169.667L96.6667 169.333M124 169L125 170L124 169M148 169L149 170L148 169M191 169L192 170L191 169M195 169L196 170L195 169M204 169L205 170L204 169M16 170L17 171L16 170M32 170L33 171L32 170M37 170L38 171L37 170M42 170L43 171L42 170M58 170L59 171L58 170M73.6667 170.333L74.3333 170.667L73.6667 170.333M145.667 170.333L146.333 170.667L145.667 170.333M161 170L162 171L161 170M177 170L178 171L177 170M180.667 170.333L181.333 170.667L180.667 170.333M183 170L183 171L187 171L183 170M189 170L190 171L189 170M193 170L194 171L193 170M203 170L204 171L203 170M17 171L18 172L17 171M24 171L25 172L24 171M30.6667 171.333L31.3333 171.667L30.6667 171.333M33.6667 171.333L34.3333 171.667L33.6667 171.333M38 171L39 172L38 171M75 171L75 172L78 172L75 171M143.667 171.333L144.333 171.667L143.667 171.333M179 171L180 172L179 171M187 171L188 172L187 171M190.333 171.667L190.667 172.333L190.333 171.667M202 171L203 172L202 171z"/>
<path style="fill:#fbe21e; stroke:none;" d="M18 172L19 173L18 172z"/>
<path style="fill:#863d7a; stroke:none;" d="M29 172L30 173L29 172M32 172L33 173L32 172M35 172L37 175L37 174L35 172z"/>
<path style="fill:#2f2c83; stroke:none;" d="M35 174L38 174L37 172L35 174z"/>
<path style="fill:#863d7a; stroke:none;" d="M37 172L38 173L37 172M45 172L46 173L45 172M61 172L62 173L61 172M78 172L78 173L83 174L83 173L78 172M137 173L137 174L142 173L137 173M158 172L159 173L158 172M174 172L175 173L174 172M177 172L178 173L177 172M181 172L182 173L181 172M184 172L185 173L184 172M201 172L202 173L201 172M41 173L42 174L41 173M173 173L174 174L173 173M176 173L177 174L176 173M180 173L181 174L180 173M182 173L183 174L182 173M200 173L201 174L200 173z"/>
<path style="fill:#2f2c83; stroke:none;" d="M39 174L38 175L38 176L39 177L40 177L41 176L41 175L39 174z"/>
<path style="fill:#863d7a; stroke:none;" d="M40 174L41 175L40 174M64 174L65 175L64 174M83 174L83 175L88 176L83 174M134 174L134 175L137 175L134 174M155 174L156 175L155 174M183 174L184 175L183 174M186 174L187 175L186 174M41 175L42 176L41 175M49 175L50 176L49 175M66 175L67 176L66 175M132.667 175.333L133.333 175.667L132.667 175.333M153 175L154 176L153 175M170 175L171 176L170 175M176 175L175 177L176 175M182 175L183 176L182 175M184 175L185 176L184 175M40 176L41 177L40 176M43 176L44 177L43 176M50 176L51 177L50 176M68 176L69 177L68 176M89.6667 176.333L90.3333 176.667L89.6667 176.333M127 177L127 178L131 177L127 177M151 176L152 177L151 176M169 176L170 177L169 176M172 176L173 177L172 176z"/>
<path style="fill:#2f2c83; stroke:none;" d="M176 176L178 179L179 178L178 176L176 176z"/>
<path style="fill:#863d7a; stroke:none;" d="M183 176L184 177L183 176M185 176L186 177L185 176M35 177L36 178L35 177M70 177L71 178L70 177M91.6667 177.333L92.3333 177.667L91.6667 177.333M149 177L150 178L149 177M171 177L172 178L171 177M186 177L187 178L186 177M25 178L26 179L25 178M38 178L39 179L38 178M40 178L41 179L40 178M72 178L73 179L72 178M93.6667 178.333L94.3333 178.667L93.6667 178.333M125.667 178.333L126.333 178.667L125.667 178.333M147 178L148 179L147 178z"/>
<path style="fill:#2f2c83; stroke:none;" d="M173 178L176 180L173 178z"/>
<path style="fill:#863d7a; stroke:none;" d="M26 179L27 180L26 179M39 179L40 180L39 179M75 179L76 180L75 179M95.6667 179.333L96.3333 179.667L95.6667 179.333M123.667 179.333L124.333 179.667L123.667 179.333M144 179L145 180L144 179M171.667 179.333L172.333 179.667L171.667 179.333M178 179L179 180L178 179M193 179L194 180L193 179M27 180L28 181L27 180M38 180L39 181L38 180M78 180L79 181L78 180M97 180L97 181L103 184L97 180M120 182L123 180L120 182M141 180L142 181L141 180M173 180L174 181L173 180M184.333 180.667L184.667 181.333L184.333 180.667M192 180L193 181L192 180M55 181L56 182L55 181M81 181L82 182L81 181M138 181L139 182L138 181M164 181L165 182L164 181M178 181L179 182L178 181M191 181L192 182L191 181M56 182L57 183L56 182M83 182L84 183L83 182M117 184L120 182L117 184M136 182L137 183L136 182z"/>
<path style="fill:#fbe21e; stroke:none;" d="M163 182L164 183L163 182z"/>
<path style="fill:#863d7a; stroke:none;" d="M176 182L177 183L176 182M181 182L182 183L181 182M190 182L191 183L190 182M35 183L36 184L35 183M86 183L87 184L86 183M133 183L134 184L133 183M179 183L180 184L179 183M37 184L38 185L37 184M57 184L58 185L57 184M88 184L89 185L88 184M103 184L104 185L103 184M116 184L117 185L116 184M131 184L132 185L131 184M162 184L163 185L162 184M36 185L37 186L36 185M90 185L91 186L90 185M104 185L105 186L104 185M115 185L116 186L115 185M129 185L130 186L129 185M92 186L93 187L92 186M97 186L98 187L97 186M106 186L107 187L106 186M113 186L114 187L113 186M127 186L128 187L127 186M58 187L59 188L58 187M107 187L108 188L107 187M112 187L113 188L112 187M161.333 187.667L161.667 188.333L161.333 187.667M185 187L186 188L185 187z"/>
<path style="fill:#fbe21e; stroke:none;" d="M35 188L36 189L35 188z"/>
<path style="fill:#863d7a; stroke:none;" d="M108 188L108 189L112 189L108 188z"/>
<path style="fill:#fbe21e; stroke:none;" d="M124 188L125 189L124 188z"/>
<path style="fill:#863d7a; stroke:none;" d="M184 188L185 189L184 188M36 189L37 190L36 189M97 189L98 190L97 189M122 189L123 190L122 189M183 189L184 190L183 189M37 190L38 191L37 190M182 190L183 191L182 190M38 191L39 192L38 191M161 191L162 192L161 191M101 192L102 193L101 192M118 192L119 193L118 192M162 192L163 193L162 192M56 193L57 194L56 193M102 193L103 194L102 193M117 193L118 194L117 193M163 193L164 194L163 193M40 194L41 195L40 194M116 194L117 195L116 194M164 194L165 195L164 194M179 194L180 195L179 194M38 196L39 197L38 196M181 196L182 197L181 196M56 197L57 198L56 197M163 197L164 198L163 197M35 198L36 199L35 198M184 198L185 199L184 198M57 199L58 200L57 199M186 199L187 200L186 199M78 200L79 201L78 200M140 200L141 201L140 200M58 201L59 202L58 201M77 201L78 202L77 201M84 201L85 202L84 201M134 201L135 202L134 201M141 201L142 202L141 201M161 201L162 202L161 201M59 202L60 203L59 202M76 202L77 203L76 202M87 202L88 203L87 202M132 202L133 203L132 202M142 202L143 203L142 202M60 203L61 204L60 203M75 203L76 204L75 203M90 203L91 204L90 203M128 203L129 204L128 203M143 203L144 204L143 203M33 204L34 205L33 204M61 204L62 205L61 204M74 204L75 205L74 204M94 204L95 205L94 204M124 204L125 205L124 204M144 204L145 205L144 204M158 204L159 205L158 204M73 205L74 206L73 205M100 205L100 206L104 206L100 205M114 205L114 206L119 206L114 205M145 205L146 206L145 205M157 205L158 206L157 205z"/>
<path style="fill:#fbe21e; stroke:none;" d="M186 205L187 206L186 205z"/>
<path style="fill:#863d7a; stroke:none;" d="M64 206L65 207L64 206M72 206L73 207L72 206M146 206L147 207L146 206M155 206L156 207L155 206M34 207L35 208L34 207M66 207L67 208L66 207M71 207L72 208L71 207M76 207L77 208L76 207z"/>
<path style="fill:#f9f9fb; stroke:none;" d="M77 207L76 220L77 220L77 213L83 214L83 220L80 218L82 215C75.8979 216.308 81.7134 221.723 85 223L85 215L91 219L86 218L87 221L91 220L92 226L93 226L93 217L94 217L95 226L97 226L98 217L77 207z"/>
<path style="fill:#863d7a; stroke:none;" d="M78 207L79 208L78 207M147 207L148 208L147 207M153 207L154 208L153 207M185 207L186 208L185 207M69.6667 208.333L70.3333 208.667L69.6667 208.333M138 208L138 209L141 209L138 208M148 208L148 209L151 209L148 208M75 209L76 210L75 209z"/>
<path style="fill:#2f2c83; stroke:none;" d="M77 209L81 212L77 209z"/>
<path style="fill:#fbe21e; stroke:none;" d="M79 209L80 210L79 209z"/>
<path style="fill:#863d7a; stroke:none;" d="M81 209L82 210L81 209z"/>
<path style="fill:#f9f9fb; stroke:none;" d="M121 217C115.256 206.61 113.459 221.925 115 227L116 227L115 219L121 218L119 223L120 219C115.822 222.076 119.65 224.443 123 226L125 220L124 224L126 219L122 219L122 218L128 217L128 222L132 220L133 224L134 224L136 215L138 222L137 214L139 214L139 218L144 219L145 219L145 210L121 217z"/>
<path style="fill:#863d7a; stroke:none;" d="M144 209L146 211L146 209L144 209M74 210L75 211L74 210M80 210L81 211L80 210z"/>
<path style="fill:#2f2c83; stroke:none;" d="M137 213L141 210L137 213z"/>
<path style="fill:#863d7a; stroke:none;" d="M36 211L37 212L36 211M75 211L76 212L75 211M78 211L79 212L78 211M135 211L136 212L135 211M81 212L82 213L81 212M138 212L139 213L138 212z"/>
<path style="fill:#fbe21e; stroke:none;" d="M141 212L142 213L141 212z"/>
<path style="fill:#863d7a; stroke:none;" d="M142 212L143 213L142 212M37 213L38 214L37 213M79 213L80 214L79 213z"/>
<path style="fill:#2f2c83; stroke:none;" d="M140 213L141 217L142 217L143 213L140 213z"/>
<path style="fill:#863d7a; stroke:none;" d="M144.333 213.667L144.667 214.333L144.333 213.667M77.3333 214.667L77.6667 215.333L77.3333 214.667M82 214L83 215L82 214M87 214L88 215L87 214M116.667 214.333L117.333 214.667L116.667 214.333M120 214L121 215L120 214M132 214L133 215L132 214M137 214L138 215L137 214z"/>
<path style="fill:#2f2c83; stroke:none;" d="M82 215L80 217L80 218L82 219L82 215z"/>
<path style="fill:#863d7a; stroke:none;" d="M85 215L86 216L85 215M91 215L92 216L91 215z"/>
<path style="fill:#2f2c83; stroke:none;" d="M115 215L115 217L120 217L115 215z"/>
<path style="fill:#863d7a; stroke:none;" d="M127.667 215.333L128.333 215.667L127.667 215.333M135 215L135 218L136 218L135 215z"/>
<path style="fill:#fbe21e; stroke:none;" d="M39 216L40 217L39 216z"/>
<path style="fill:#863d7a; stroke:none;" d="M88 216L89 217L88 216z"/>
<path style="fill:#fbe21e; stroke:none;" d="M95 216L96 217L95 216z"/>
<path style="fill:#863d7a; stroke:none;" d="M96.6667 216.333L97.3333 216.667L96.6667 216.333M113 216L114 217L113 216z"/>
<path style="fill:#fbe21e; stroke:none;" d="M121 216L122 217L121 216z"/>
<path style="fill:#863d7a; stroke:none;" d="M122 216L123 217L122 216M130.667 216.333L131.333 216.667L130.667 216.333M180 216L181 217L180 216M40 217L41 218L40 217M81 217L82 218L81 217M93 217L94 218L93 217z"/>
<path style="fill:#f9f9fb; stroke:none;" d="M101 217L101 218L107 219L107 221L102 221L103 224L107 222L109 227L109 217L101 217z"/>
<path style="fill:#863d7a; stroke:none;" d="M109.333 217.667L109.667 218.333L109.333 217.667M112.333 217.667L112.667 218.333L112.333 217.667M125 217L126 218L125 217M127 217L128 218L127 217z"/>
<path style="fill:#2f2c83; stroke:none;" d="M129 219L132 217L129 219z"/>
<path style="fill:#863d7a; stroke:none;" d="M133.333 217.667L133.667 218.333L133.333 217.667M137.333 217.667L137.667 218.333L137.333 217.667M142 217L144 219L144 217L142 217M179 217L180 218L179 217M41 218L42 219L41 218M75.3333 218.667L75.6667 219.333L75.3333 218.667M82 218L83 219L82 218M89 218L90 219L89 218M101.667 218.333L102.333 218.667L101.667 218.333M116 218L116 219L119 219L116 218z"/>
<path style="fill:#2f2c83; stroke:none;" d="M119 218L119 223L119 218z"/>
<path style="fill:#863d7a; stroke:none;" d="M120 218L121 219L120 218M131 218L132 219L131 218M42 219L43 220L42 219M77 219L78 220L77 219z"/>
<path style="fill:#fbe21e; stroke:none;" d="M82 219L83 220L82 219z"/>
<path style="fill:#863d7a; stroke:none;" d="M86 219L87 220L86 219M115.333 219.667L115.667 220.333L115.333 219.667M127 219L128 220L127 219z"/>
<path style="fill:#fbe21e; stroke:none;" d="M133 219L134 220L133 219z"/>
<path style="fill:#863d7a; stroke:none;" d="M144 219L145 220L144 219M177 219L178 220L177 219M43 220L44 221L43 220z"/>
<path style="fill:#fbe21e; stroke:none;" d="M102 220L103 221L102 220z"/>
<path style="fill:#863d7a; stroke:none;" d="M103 220L103 221L107 221L103 220M117 220L118 221L117 220M119 220L120 221L119 220M124 220L125 221L124 220M130 220L131 221L130 220M176 220L177 221L176 220M87.6667 221.333L88.3333 221.667L87.6667 221.333M101 221L102 222L101 221M108 221L108 226L109 226L108 221M46 222L47 223L46 222M104.333 222.667L104.667 223.333L104.333 222.667M124 222L125 223L124 222M129 222L130 223L129 222M132.333 222.667L132.667 223.333L132.333 222.667M136.667 222.333L137.333 222.667L136.667 222.333M173 222L174 223L173 222M72 223L73 224L72 223M84 223L85 224L84 223M146 223L147 224L146 223M66 224L67 225L66 224M74 224L75 225L74 224M120 224L121 225L120 224M124.667 224.333L125.333 224.667L124.667 224.333M144 224L145 225L144 224M153 224L154 225L153 224M170 224L171 225L170 224M51 225L52 226L51 225M65 225L66 226L65 225M76 225L77 226L76 225M91 225L92 226L91 225M121 225L121 227L123 227L121 225M142 225L143 226L142 225M154 225L155 226L154 225M168 225L169 226L168 225M54 226L55 227L54 226M96 226L97 227L96 226M114 226L115 227L114 226M140 226L141 227L140 226M165 226L166 227L165 226M57.6667 227.333L58.3333 227.667L57.6667 227.333M63 227L64 228L63 227M82 227L83 228L82 227M107 227L108 228L107 227M161.667 227.333L162.333 227.667L161.667 227.333M85 228L86 229L85 228M133 228L134 229L133 228M90.6667 229.333L91.3333 229.667L90.6667 229.333M127.667 229.333L128.333 229.667L127.667 229.333M96 230L96 231L102 231L96 230M117 230L117 231L122 231L117 230z"/>
</svg>
