<?xml version="1.0" standalone="no"?>
<!DOCTYPE svg PUBLIC "-//W3C//DTD SVG 20010904//EN"
 "http://www.w3.org/TR/2001/REC-SVG-20010904/DTD/svg10.dtd">
<svg version="1.0" xmlns="http://www.w3.org/2000/svg"
 width="1483.000000pt" height="361.000000pt" viewBox="0 0 1483.000000 361.000000"
 preserveAspectRatio="xMidYMid meet">
<metadata>
Created by potrace 1.16, written by Peter Selinger 2001-2019
</metadata>
<g transform="translate(0.000000,361.000000) scale(0.100000,-0.100000)"
fill="#000000" stroke="none">
<path d="M3780 3196 l0 -44 75 -11 c112 -16 142 -32 166 -85 19 -44 19 -65 17
-740 -3 -687 -3 -695 -24 -723 -29 -39 -66 -55 -156 -67 l-78 -10 0 -43 0 -43
400 0 400 0 0 43 0 43 -77 10 c-91 12 -128 28 -157 67 -20 27 -21 42 -24 356
l-3 328 218 6 c306 9 388 30 501 132 61 55 116 159 133 250 13 72 6 211 -15
280 -21 69 -67 139 -115 173 -22 16 -83 43 -136 61 -163 54 -242 61 -707 61
l-418 0 0 -44z m885 -67 c85 -26 156 -89 187 -167 19 -49 22 -76 23 -188 l0
-131 -40 -79 c-73 -143 -158 -184 -383 -184 l-132 0 0 384 0 385 48 4 c85 8
233 -4 297 -24z"/>
<path d="M763 2448 c3 -530 8 -802 16 -842 61 -314 221 -481 593 -621 112 -42
189 -89 275 -169 l63 -58 67 62 c91 83 171 129 332 190 161 60 241 109 342
211 92 92 150 201 181 341 21 89 22 123 25 881 l4 787 -371 0 -372 0 -99 -55
c-55 -30 -103 -55 -108 -55 -4 0 -53 25 -108 55 l-101 55 -372 0 -372 0 5
-782z m502 487 c75 -36 74 -144 -2 -180 -40 -19 -77 -13 -110 17 -50 47 -33
136 30 163 41 18 43 18 82 0z m248 -26 c37 -40 37 -88 -2 -131 -62 -69 -166
-28 -166 66 0 97 102 137 168 65z m171 15 c20 -20 20 -43 0 -65 -15 -17 -14
-21 16 -59 18 -22 37 -39 44 -37 15 5 20 145 5 163 -9 11 -6 14 17 14 25 0 36
-10 74 -66 l45 -67 3 54 c3 42 -1 56 -14 66 -15 11 1 13 97 13 l115 0 14 -37
c7 -21 20 -54 28 -73 l14 -35 28 70 c26 66 30 70 61 73 30 3 32 2 16 -10 -15
-11 -17 -26 -15 -88 3 -71 4 -75 27 -75 20 0 28 12 58 88 20 48 40 86 45 85 5
-2 24 -38 41 -79 18 -42 38 -84 46 -93 12 -14 9 -16 -30 -16 -29 0 -39 3 -30
9 8 5 11 16 6 30 -9 29 -70 30 -85 2 -8 -16 -6 -22 7 -30 13 -8 -5 -10 -67
-10 -47 1 -77 3 -67 6 14 4 17 16 16 71 l0 67 -28 -70 c-16 -38 -33 -69 -37
-69 -5 1 -20 31 -34 65 l-25 64 -3 -53 c-2 -31 2 -60 9 -68 10 -12 -1 -14 -72
-13 -46 1 -76 3 -66 6 16 4 17 15 15 86 -3 74 -5 82 -23 82 -18 0 -20 -8 -23
-87 -2 -61 -7 -88 -15 -88 -7 0 -34 34 -62 76 l-50 75 -3 -63 c-2 -50 0 -65
14 -75 15 -11 9 -13 -44 -13 -58 0 -62 2 -77 29 -17 33 -42 61 -56 61 -17 0
-10 -68 9 -79 13 -8 6 -10 -33 -10 -39 0 -46 2 -32 10 14 8 17 24 17 84 0 60
-3 76 -17 84 -14 8 -3 10 44 11 43 0 66 -5 77 -16z m368 -264 c-3 -32 -1 -40
12 -40 12 0 16 10 16 40 l0 40 68 0 67 0 0 -45 c0 -25 -5 -45 -10 -45 -6 0 -9
16 -7 38 3 35 2 38 -23 40 -26 2 -27 0 -23 -38 2 -24 -1 -40 -7 -40 -6 0 -9
16 -7 40 4 38 3 40 -22 38 -23 -2 -26 -7 -26 -41 0 -36 -2 -38 -27 -35 -23 2
-29 9 -33 38 -3 24 -11 36 -24 38 -16 3 -18 -2 -14 -37 3 -32 0 -41 -12 -41
-12 0 -15 9 -12 39 4 36 2 40 -18 38 -19 -1 -21 -6 -18 -39 2 -26 0 -38 -9
-38 -8 0 -13 14 -13 38 0 31 -4 38 -21 39 -19 2 -21 -3 -17 -38 2 -27 0 -39
-9 -39 -8 0 -13 14 -13 38 0 37 -1 38 -35 39 -41 1 -43 -3 -13 -26 13 -11 19
-24 15 -34 -8 -22 -57 -23 -57 -2 0 13 3 13 20 3 27 -17 40 1 13 19 -13 9 -23
24 -23 34 0 18 10 19 143 19 l143 0 -4 -40z m-302 -264 c0 -84 2 -94 19 -99
17 -4 21 4 31 64 12 71 18 83 37 71 8 -5 8 -25 -1 -75 -11 -59 -11 -70 1 -74
19 -8 25 0 58 82 15 39 31 74 36 79 7 8 79 -13 79 -24 0 -3 -16 -43 -35 -89
-33 -78 -36 -101 -15 -101 6 0 26 25 46 55 20 30 43 55 50 55 22 0 17 -16 -21
-76 -34 -53 -37 -74 -12 -74 6 0 41 29 77 65 l66 65 29 -30 29 -30 -69 -70
c-51 -51 -66 -73 -58 -81 8 -8 27 0 71 30 50 34 62 38 72 26 9 -11 0 -21 -49
-54 -41 -28 -58 -46 -55 -56 8 -20 8 -20 105 19 l84 35 16 -37 c9 -20 15 -39
13 -42 -1 -4 -41 -21 -88 -40 -47 -19 -86 -37 -86 -40 1 -25 18 -28 80 -15 67
14 80 13 80 -9 0 -8 -26 -17 -70 -25 -58 -11 -70 -16 -70 -32 0 -17 8 -19 101
-19 l100 0 -3 -42 -3 -43 -97 -3 c-75 -2 -98 -6 -98 -17 0 -12 75 -35 115 -35
18 0 30 -19 18 -31 -6 -6 -35 -4 -76 4 -58 13 -67 13 -72 -1 -8 -21 -3 -24 90
-62 44 -18 81 -33 83 -35 5 -5 -31 -75 -39 -75 -4 0 -44 16 -89 35 -45 19 -83
35 -85 35 -1 0 -5 -7 -9 -15 -3 -10 14 -28 54 -55 41 -28 57 -45 53 -55 -6
-17 -5 -17 -93 42 -31 20 -36 21 -49 8 -14 -13 -8 -23 54 -85 l69 -69 -24 -26
c-13 -14 -28 -25 -35 -25 -6 0 -39 29 -75 65 -48 49 -67 62 -77 54 -10 -9 -4
-23 27 -69 45 -67 45 -66 26 -73 -10 -4 -27 14 -53 54 -40 63 -45 66 -61 47
-7 -9 0 -37 24 -97 19 -47 34 -86 34 -88 0 -3 -69 -33 -75 -33 -2 0 -20 40
-40 89 -28 67 -41 88 -52 84 -11 -4 -13 -14 -9 -37 18 -88 19 -116 3 -116 -11
0 -19 17 -27 58 -16 79 -17 82 -40 82 -19 0 -20 -6 -20 -100 l0 -100 -40 0
-40 0 0 100 c0 90 -2 100 -18 100 -15 0 -21 -13 -31 -70 -8 -42 -18 -70 -25
-70 -21 0 -24 9 -16 48 20 95 20 100 1 105 -15 4 -25 -11 -51 -77 -18 -44 -36
-84 -40 -89 -6 -7 -80 18 -80 27 0 2 16 41 35 86 40 93 40 96 20 103 -9 4 -26
-13 -50 -53 -20 -33 -40 -60 -45 -60 -24 0 -19 26 15 76 30 45 34 58 24 70
-11 13 -23 5 -81 -52 l-68 -68 -30 29 -30 29 66 67 c52 52 64 70 57 83 -8 14
-16 11 -66 -24 -52 -38 -77 -44 -77 -20 0 6 25 26 55 46 58 39 60 41 47 62 -7
10 -29 4 -95 -24 -48 -21 -89 -35 -92 -33 -2 3 -11 21 -19 41 l-15 35 85 33
c47 18 87 37 91 42 13 22 -16 29 -77 18 -46 -8 -66 -8 -74 0 -15 15 5 26 62
35 59 9 72 14 72 31 0 11 -20 14 -95 14 l-95 0 0 45 0 45 96 0 c85 0 95 2 92
17 -2 12 -21 21 -67 30 -72 15 -79 19 -63 35 8 8 27 8 72 -1 33 -7 65 -9 70
-6 22 14 7 33 -37 50 -27 10 -67 27 -90 37 l-42 18 16 38 c8 20 16 38 17 39 1
2 40 -13 86 -33 79 -33 110 -37 110 -15 0 5 -27 26 -60 46 -40 24 -57 41 -53
50 7 21 12 20 70 -20 29 -19 57 -35 62 -35 31 0 16 29 -45 91 l-68 69 29 30
29 30 66 -65 c36 -36 71 -65 77 -65 25 0 21 18 -17 75 -25 37 -36 63 -30 69
12 12 33 -6 67 -60 27 -43 46 -54 58 -34 3 5 -10 48 -30 96 -20 47 -35 87 -33
88 20 14 71 27 78 20 4 -5 23 -44 40 -86 20 -48 39 -78 48 -78 11 0 13 8 8 38
-19 115 -19 112 -3 112 16 0 21 -10 32 -70 12 -63 15 -68 35 -63 18 5 20 14
20 99 l0 94 40 0 40 0 0 -94z"/>
<path d="M1180 2915 c-21 -26 -25 -101 -6 -130 17 -26 57 -33 84 -16 31 19 31
133 0 152 -21 14 -64 10 -78 -6z"/>
<path d="M1396 2908 c-9 -12 -16 -41 -16 -63 0 -53 23 -85 60 -85 37 0 60 32
60 85 0 53 -23 85 -60 85 -18 0 -34 -8 -44 -22z"/>
<path d="M1627 2143 c-14 -4 -16 -8 -6 -19 6 -8 9 -23 6 -34 -3 -10 1 -24 8
-30 8 -6 11 -19 8 -28 -10 -28 -66 -82 -82 -79 -17 2 -19 -13 -7 -50 5 -17 2
-22 -15 -25 -26 -4 -38 -28 -15 -28 9 0 16 -4 16 -10 0 -5 -5 -10 -12 -10 -8
0 -6 -7 5 -17 14 -14 21 -15 36 -6 18 11 19 8 20 -44 0 -49 12 -97 41 -168 5
-11 13 -33 17 -49 12 -39 23 -41 51 -5 15 19 25 48 29 84 4 38 11 56 22 60 9
3 44 32 78 65 34 33 67 60 74 60 7 0 9 10 5 28 -17 75 -12 96 17 67 9 -8 25
-15 36 -15 12 0 21 -4 21 -10 0 -5 -4 -10 -10 -10 -5 0 -10 -5 -10 -11 0 -5 5
-7 10 -4 6 3 10 1 10 -4 0 -6 5 -11 10 -11 6 0 10 7 10 15 0 8 4 15 9 15 5 0
12 13 16 30 4 16 14 34 22 39 21 11 10 41 -15 41 -22 0 -62 -32 -62 -49 0 -15
-53 -14 -68 1 -9 9 -12 8 -12 -5 0 -21 -12 -21 -69 -1 -70 24 -83 33 -76 54 4
13 -1 23 -14 32 -22 13 -29 38 -11 38 5 0 7 6 4 14 -3 8 -1 17 5 21 6 3 11 13
11 22 0 11 -6 14 -24 9 -16 -4 -29 0 -41 14 -10 11 -21 19 -24 19 -3 -1 -14
-3 -24 -6z"/>
<path d="M5825 2734 c-11 -2 -45 -9 -75 -15 -30 -6 -93 -29 -140 -51 -69 -33
-100 -56 -165 -122 -137 -138 -186 -266 -186 -481 0 -133 14 -201 62 -305 77
-165 235 -296 420 -346 85 -23 269 -23 359 0 242 62 423 246 476 484 25 112
16 302 -19 405 -70 203 -237 359 -442 412 -59 16 -251 28 -290 19z m235 -84
c72 -20 143 -72 186 -136 53 -79 101 -225 115 -350 23 -210 -38 -461 -142
-579 -139 -158 -480 -152 -604 11 -38 49 -81 147 -106 239 -19 66 -22 107 -22
235 0 140 2 164 26 243 66 216 146 308 299 342 67 16 186 13 248 -5z"/>
<path d="M7285 2726 c-335 -66 -545 -349 -522 -706 12 -174 62 -298 168 -413
145 -159 356 -235 579 -207 176 21 283 72 400 189 121 121 175 247 187 432 22
333 -168 611 -473 693 -83 23 -253 29 -339 12z m310 -87 c115 -43 193 -149
247 -334 20 -69 23 -102 23 -240 -1 -182 -12 -237 -75 -372 -47 -100 -107
-162 -188 -194 -82 -33 -261 -33 -343 -1 -134 53 -217 185 -260 409 -15 83 -6
318 16 398 59 210 165 326 324 356 68 12 194 1 256 -22z"/>
<path d="M13686 2721 c-3 -5 -109 -265 -236 -577 -251 -620 -254 -626 -337
-639 -82 -13 -83 -14 -83 -45 l0 -30 225 0 225 0 0 29 c0 27 -2 29 -61 35 -64
8 -99 30 -99 66 0 11 25 83 56 160 l56 140 243 0 243 0 62 -152 c51 -125 60
-155 51 -174 -10 -24 -63 -44 -113 -44 -24 0 -28 -4 -28 -30 l0 -30 261 0 260
0 -3 32 c-3 29 -7 33 -39 39 -56 9 -95 43 -127 112 -16 34 -130 299 -253 590
l-224 527 -37 0 c-20 0 -39 -4 -42 -9z m122 -598 l71 -173 -205 0 c-112 0
-204 2 -204 5 0 3 46 121 101 262 l102 256 32 -89 c18 -49 64 -167 103 -261z"/>
<path d="M8200 2676 c0 -33 1 -34 52 -40 79 -11 114 -29 127 -66 15 -44 16
-964 0 -1008 -11 -32 -65 -62 -112 -62 -49 0 -67 -11 -67 -41 l0 -29 290 0
290 0 0 29 c0 29 -18 40 -65 41 -11 0 -37 5 -58 11 -62 17 -67 41 -67 300 l0
222 80 -6 c44 -4 93 -13 109 -21 49 -26 101 -95 216 -286 60 -101 129 -208
153 -237 l43 -53 385 0 385 0 -3 32 c-3 30 -7 33 -47 40 -55 9 -86 29 -108 71
-16 29 -18 74 -21 491 l-3 459 78 -115 c43 -64 218 -314 388 -556 l310 -441
42 -1 42 0 3 558 c2 449 6 562 17 582 26 49 54 69 107 81 52 12 54 13 54 46
l0 33 -220 0 -220 0 0 -35 c0 -32 3 -35 43 -45 68 -17 107 -38 116 -63 5 -13
11 -205 13 -425 l3 -401 -25 48 c-14 27 -164 245 -335 484 l-310 436 -192 1
-193 0 0 -34 c0 -33 1 -34 52 -40 84 -12 115 -29 128 -73 8 -26 10 -178 8
-498 -3 -418 -5 -463 -21 -492 -9 -18 -28 -40 -40 -48 -39 -25 -121 -36 -179
-24 -68 15 -111 60 -234 246 -133 203 -203 273 -304 304 l-25 7 27 1 c56 2
138 42 198 97 73 68 95 120 95 224 0 91 -33 168 -97 225 -98 89 -185 104 -595
105 l-313 0 0 -34z m661 -68 c100 -46 134 -116 127 -262 -5 -102 -25 -155 -78
-199 -43 -37 -89 -47 -212 -47 l-108 0 0 271 0 272 108 -5 c88 -3 117 -9 163
-30z"/>
<path d="M10830 2676 c0 -33 1 -34 52 -40 79 -11 114 -29 127 -66 7 -23 11
-179 11 -507 0 -536 0 -534 -67 -552 -21 -6 -47 -11 -58 -11 -47 -1 -65 -12
-65 -41 l0 -29 290 0 290 0 0 29 c0 29 -18 40 -65 41 -11 0 -37 5 -58 11 -67
18 -67 16 -67 558 0 281 4 490 10 505 12 33 51 52 123 61 57 7 57 7 57 41 l0
34 -290 0 -290 0 0 -34z"/>
<path d="M11420 2677 c0 -33 1 -34 62 -45 43 -8 70 -19 88 -37 l25 -25 3 -478
c2 -439 1 -480 -15 -511 -24 -46 -58 -70 -113 -79 -42 -7 -45 -10 -48 -40 l-3
-32 226 0 226 0 -3 32 c-3 30 -6 33 -48 40 -25 4 -56 16 -70 26 -55 41 -55 40
-57 532 l-2 455 31 -84 c17 -46 115 -289 218 -540 l187 -456 37 0 38 0 140
340 c77 187 175 428 219 535 l79 195 0 -440 c0 -279 -4 -454 -11 -478 -14 -53
-40 -74 -96 -82 -78 -11 -83 -14 -83 -46 l0 -29 285 0 285 0 0 29 c0 27 -4 30
-42 36 -24 3 -58 11 -75 16 -65 20 -63 3 -63 546 0 289 4 502 10 517 12 32 50
52 118 61 51 7 52 7 52 41 l0 34 -197 0 -198 -1 -205 -505 -204 -506 -22 71
c-12 39 -102 266 -200 506 l-179 435 -197 0 -198 0 0 -33z"/>
<path d="M612 2296 c-29 -30 -52 -59 -52 -65 0 -6 9 -25 20 -43 44 -73 10
-160 -103 -261 -91 -81 -95 -100 -45 -192 20 -37 27 -60 20 -63 -6 -2 -26 -13
-44 -25 -48 -33 -48 -65 0 -109 l38 -35 -33 -21 c-41 -28 -43 -64 -8 -140 44
-94 85 -144 261 -317 96 -93 174 -175 174 -181 0 -5 -21 -25 -46 -43 -44 -31
-46 -34 -39 -69 10 -60 56 -144 105 -193 53 -53 155 -106 220 -115 42 -6 48
-3 90 34 42 37 47 39 65 25 169 -128 758 -129 937 -2 l28 20 50 -42 c46 -39
52 -41 93 -35 61 9 154 56 209 105 52 46 106 144 115 208 5 37 3 40 -41 68
-25 16 -46 34 -46 39 0 6 78 87 174 181 176 172 217 223 261 317 35 76 33 112
-8 140 l-33 21 38 35 c48 44 48 76 0 109 -18 12 -38 23 -44 25 -8 3 0 25 20
61 46 81 43 117 -10 164 -94 84 -126 122 -142 169 -21 62 -20 82 4 122 11 18
20 38 20 45 0 20 -107 121 -114 108 -15 -23 -18 -149 -6 -202 19 -80 34 -103
97 -151 72 -55 77 -76 29 -144 -67 -95 -86 -132 -89 -170 -2 -30 2 -40 20 -49
22 -12 22 -12 -12 -45 -19 -19 -35 -42 -35 -52 0 -10 18 -30 40 -44 22 -15 40
-32 40 -38 0 -18 -67 -116 -108 -159 -20 -21 -84 -73 -142 -115 -158 -114
-189 -141 -216 -187 -31 -53 -33 -115 -4 -133 19 -12 19 -14 5 -50 -22 -52
-59 -87 -118 -112 l-50 -22 -58 58 -58 57 -98 -34 c-97 -33 -100 -33 -278 -33
-178 0 -181 0 -278 33 l-98 34 -52 -52 c-29 -28 -61 -51 -70 -51 -31 0 -95 39
-121 73 -34 44 -44 94 -22 103 11 4 16 19 16 48 0 62 -44 123 -137 192 -182
135 -224 168 -254 202 -36 41 -99 136 -99 150 0 5 18 21 40 36 22 14 40 34 40
43 0 9 -14 32 -32 50 l-32 33 22 16 c12 8 22 25 22 37 -1 34 -34 100 -79 157
-68 86 -66 108 15 168 76 57 99 112 99 239 0 60 -4 106 -11 113 -7 7 -25 -5
-62 -44z m2179 -993 c-1 -15 73 -83 91 -83 10 0 18 -4 18 -10 0 -18 -46 -11
-65 10 -19 21 -40 22 -40 2 0 -7 -3 -12 -7 -12 -5 0 -15 0 -24 0 -8 0 -13 4
-10 9 3 5 -1 14 -8 20 -11 9 -16 9 -21 1 -4 -7 9 -29 31 -51 21 -21 34 -40 29
-40 -42 -5 -74 -21 -80 -39 -9 -30 -34 -32 -69 -5 -47 36 -53 18 -9 -27 20
-21 33 -41 29 -45 -4 -5 -23 9 -41 30 -29 34 -55 48 -55 30 0 -4 17 -24 37
-45 36 -37 40 -67 5 -35 -10 10 -26 17 -35 17 -26 0 -20 -27 8 -34 14 -4 25
-11 25 -16 0 -13 2 -13 -53 6 -43 15 -63 34 -35 34 9 0 9 3 0 12 -8 8 -15 8
-26 -1 -30 -25 -24 7 7 36 39 37 122 93 136 93 6 0 11 4 11 8 0 12 141 154
147 148 3 -2 4 -8 4 -13z m-2080 -74 c45 -44 110 -99 143 -122 49 -34 57 -43
40 -45 -28 -4 -81 -61 -86 -92 l-5 -25 -10 25 c-9 21 -7 29 15 53 25 26 22 33
-15 28 -23 -3 -14 36 9 43 18 4 20 8 10 18 -9 9 -19 5 -47 -22 -35 -34 -62
-36 -32 -2 22 24 21 32 -3 32 -13 0 -20 7 -20 20 0 25 12 25 35 0 10 -11 22
-17 27 -14 5 4 -3 19 -18 35 l-28 29 -38 -37 c-24 -24 -38 -32 -38 -22 0 8 14
28 30 44 20 19 27 32 20 39 -7 7 -22 -1 -45 -24 -19 -19 -35 -29 -35 -22 0 6
9 19 19 29 19 18 19 18 0 42 -10 13 -19 19 -19 14 0 -5 5 -14 12 -21 14 -14 4
-26 -28 -36 -17 -5 -23 -1 -27 16 -8 27 9 49 19 25 3 -9 10 -17 15 -17 5 0 4
9 -3 20 -10 15 -10 22 0 32 9 9 18 6 39 -13 l28 -24 -21 25 c-65 77 -39 63 57
-31z m637 -567 c9 -9 24 -28 32 -40 11 -17 34 -27 98 -40 60 -12 81 -20 77
-30 -3 -8 -5 -34 -5 -58 0 -24 -4 -44 -10 -44 -5 0 -10 23 -10 50 0 38 -4 50
-15 50 -11 0 -15 -12 -15 -51 0 -31 -4 -48 -10 -44 -5 3 -10 19 -10 36 0 19
-5 29 -15 29 -8 0 -15 -5 -15 -11 0 -15 -18 -2 -31 23 -11 20 -9 20 25 14 38
-7 52 8 16 18 -11 3 -29 9 -40 12 -18 5 -20 1 -20 -45 0 -28 -4 -51 -10 -51
-5 0 -10 6 -10 14 0 8 -9 18 -20 21 -40 13 -49 75 -11 75 14 0 14 2 1 10 -28
18 -39 10 -42 -30 -2 -22 -7 -40 -13 -40 -6 0 -9 21 -7 49 2 28 -1 52 -7 55
-17 11 6 46 29 46 11 0 28 -8 38 -18z m780 -6 c24 -1 27 -7 12 -22 -5 -5 -6
-24 0 -48 9 -43 3 -68 -11 -44 -5 9 -18 14 -32 11 -18 -4 -25 2 -34 24 -11 27
-12 25 -12 -22 1 -68 0 -72 -11 -55 -5 8 -10 30 -10 48 0 23 -5 32 -16 32 -14
0 -16 -8 -10 -50 4 -32 3 -50 -4 -50 -5 0 -10 6 -10 14 0 21 -21 31 -30 16 -4
-7 -15 -10 -24 -7 -12 5 -15 14 -10 33 6 25 5 27 -17 21 -13 -4 -31 -7 -39 -8
-8 0 -4 -4 10 -8 19 -5 25 -14 25 -36 0 -15 -6 -30 -13 -33 -9 -3 -11 3 -6 22
4 16 2 26 -5 26 -6 0 -11 -16 -11 -35 0 -19 -4 -35 -10 -35 -5 0 -10 5 -10 10
0 6 -9 10 -20 10 -26 0 -37 27 -21 51 9 16 8 19 -9 19 -17 0 -20 -7 -20 -50 0
-27 -4 -50 -10 -50 -5 0 -10 22 -10 49 0 28 -5 51 -11 53 -8 3 -6 14 5 36 20
38 57 43 83 12 21 -24 25 -24 114 -4 45 10 69 20 69 30 0 26 40 57 63 49 12
-4 32 -8 45 -9z"/>
<path d="M3780 1245 l0 -45 5315 0 5315 0 0 45 0 45 -5315 0 -5315 0 0 -45z"/>
<path d="M4004 1061 c-91 -23 -178 -107 -210 -203 -23 -69 -20 -185 7 -247 30
-71 102 -136 175 -157 71 -20 130 -15 247 21 l87 27 0 77 c0 82 9 101 47 101
16 0 23 6 23 20 0 19 -7 20 -130 20 -123 0 -130 -1 -130 -20 0 -16 7 -20 33
-20 46 0 57 -15 57 -80 0 -68 -16 -87 -87 -105 -98 -25 -174 19 -214 124 -17
46 -20 73 -17 151 3 82 8 105 33 155 34 67 64 93 117 101 103 17 182 -43 222
-168 3 -10 15 -18 27 -18 19 0 21 4 15 38 -3 20 -6 67 -6 105 0 60 -2 67 -20
67 -11 0 -20 -7 -20 -15 0 -19 1 -19 -52 4 -50 23 -158 34 -204 22z"/>
<path d="M5247 1060 c-92 -24 -170 -88 -208 -175 -17 -38 -23 -69 -23 -130 1
-102 27 -166 94 -229 69 -65 108 -79 215 -80 105 -1 162 21 228 87 62 62 81
116 81 222 0 103 -22 162 -82 223 -70 69 -207 106 -305 82z m159 -49 c22 -10
50 -31 62 -45 75 -97 75 -325 0 -422 -47 -59 -148 -80 -223 -45 -48 22 -69 44
-90 96 -44 104 -39 244 13 340 46 86 146 118 238 76z"/>
<path d="M7321 1060 c-93 -20 -186 -100 -215 -188 -21 -59 -20 -176 0 -235 22
-64 91 -139 156 -168 71 -32 201 -33 269 -3 63 29 116 78 147 138 24 45 27 62
27 151 0 110 -13 148 -76 219 -62 71 -197 109 -308 86z m140 -40 c44 -12 81
-51 111 -115 33 -74 33 -228 -1 -303 -42 -93 -114 -133 -209 -117 -64 10 -101
40 -130 103 -24 51 -27 69 -27 167 0 100 3 115 28 167 45 92 125 126 228 98z"/>
<path d="M9585 1063 c-86 -22 -125 -71 -125 -156 0 -48 4 -61 30 -90 16 -19
69 -55 117 -81 101 -54 113 -62 136 -96 25 -36 21 -75 -11 -111 -24 -27 -37
-33 -84 -37 -53 -4 -58 -2 -96 33 -23 20 -48 56 -58 81 -11 30 -23 44 -35 44
-17 0 -19 -9 -19 -95 0 -88 2 -95 20 -95 10 0 23 8 29 17 9 16 12 16 51 -6 24
-13 65 -25 98 -28 113 -10 192 67 192 186 0 91 -35 130 -188 211 -67 36 -112
80 -112 110 0 34 42 71 85 76 57 7 101 -23 128 -87 14 -33 27 -49 39 -49 16 0
18 10 18 85 0 77 -2 85 -19 85 -10 0 -22 -7 -25 -15 -5 -14 -9 -14 -33 -1 -32
16 -108 27 -138 19z"/>
<path d="M12981 1060 c-93 -20 -186 -100 -215 -188 -21 -59 -20 -176 0 -235
22 -64 91 -139 156 -168 71 -32 201 -33 269 -3 63 29 116 78 147 138 24 45 27
62 27 151 0 110 -13 148 -76 219 -62 71 -197 109 -308 86z m140 -40 c44 -12
81 -51 111 -115 33 -74 33 -228 -1 -303 -42 -93 -114 -133 -209 -117 -64 10
-101 40 -130 103 -24 51 -27 69 -27 167 0 100 3 115 28 167 45 92 125 126 228
98z"/>
<path d="M14185 1055 c-77 -27 -116 -99 -100 -182 9 -49 50 -86 164 -148 104
-55 131 -82 131 -132 0 -45 -14 -69 -50 -88 -85 -44 -195 15 -217 118 -4 18
-12 27 -24 27 -17 0 -19 -9 -19 -95 0 -87 2 -95 19 -95 11 0 23 9 26 20 6 20
7 20 33 2 98 -69 239 -45 287 48 9 18 15 56 15 99 0 67 -2 73 -34 109 -19 21
-76 60 -126 88 -51 27 -101 60 -111 73 -52 65 7 143 95 127 41 -8 94 -63 103
-107 4 -20 12 -29 24 -29 17 0 19 9 19 85 0 68 -3 85 -15 85 -7 0 -18 -7 -23
-15 -7 -14 -12 -14 -38 -1 -46 23 -114 28 -159 11z"/>
<path d="M4400 1030 c0 -15 7 -20 28 -20 51 0 52 -6 52 -254 0 -127 -4 -236
-8 -242 -4 -6 -22 -15 -39 -19 -19 -3 -33 -13 -33 -21 0 -11 25 -14 135 -14
109 0 135 3 135 14 0 8 -15 17 -35 20 -19 4 -39 15 -45 26 -5 10 -10 62 -10
114 l0 96 41 0 c49 0 81 -29 134 -125 20 -34 49 -81 65 -104 l30 -41 75 0 c84
0 100 15 43 41 -23 10 -53 43 -98 109 -36 52 -79 104 -96 115 l-32 21 44 23
c57 31 78 64 78 128 1 63 -22 99 -84 131 -41 20 -58 22 -212 22 -161 0 -168
-1 -168 -20z m270 -19 c62 -13 90 -47 90 -112 0 -92 -39 -129 -136 -129 l-44
0 0 125 c0 142 -6 134 90 116z"/>
<path d="M5680 1036 c0 -15 21 -26 50 -26 34 0 40 -33 40 -225 0 -210 9 -264
51 -299 55 -47 202 -60 277 -26 34 15 47 29 65 67 19 43 22 70 27 257 5 225 3
218 63 231 15 3 27 12 27 20 0 12 -20 15 -111 15 -97 0 -110 -2 -107 -16 2 -9
19 -22 38 -28 l35 -11 3 -180 c4 -218 -1 -257 -36 -296 -35 -39 -118 -50 -172
-22 -52 27 -59 58 -59 289 -1 216 -1 216 52 229 15 4 27 13 27 21 0 11 -26 14
-135 14 -109 0 -135 -3 -135 -14z"/>
<path d="M6290 1032 c0 -16 8 -21 32 -24 53 -5 58 -27 58 -255 0 -111 -4 -213
-9 -226 -7 -17 -20 -26 -45 -31 -22 -4 -36 -13 -36 -21 0 -12 24 -15 135 -15
111 0 135 3 135 15 0 8 -14 17 -35 21 -20 3 -40 15 -45 25 -6 10 -10 60 -10
112 l0 94 86 6 c141 10 194 55 194 164 0 69 -16 100 -64 126 -37 19 -61 22
-218 25 -174 4 -178 3 -178 -16z m281 -22 c47 -13 69 -39 76 -88 12 -92 -39
-152 -129 -152 l-48 0 0 125 0 125 33 0 c17 0 48 -5 68 -10z"/>
<path d="M7760 1030 c0 -15 7 -20 28 -20 51 0 52 -6 52 -256 0 -248 0 -246
-53 -259 -15 -4 -27 -13 -27 -21 0 -11 26 -14 130 -14 104 0 130 3 130 14 0 8
-12 17 -27 21 -50 12 -53 20 -53 141 l0 114 36 0 c50 0 72 -15 80 -55 4 -25
11 -35 25 -35 17 0 19 9 19 105 0 97 -1 105 -19 105 -13 0 -21 -9 -26 -30 -8
-36 -31 -50 -79 -50 l-36 0 0 110 0 110 80 0 c89 0 109 -11 136 -76 20 -47 44
-45 44 4 0 20 -3 54 -6 75 l-7 37 -213 0 c-207 0 -214 -1 -214 -20z"/>
<path d="M8510 1030 c0 -15 7 -20 28 -20 51 0 52 -6 52 -256 0 -248 0 -246
-53 -259 -15 -4 -27 -13 -27 -21 0 -11 26 -14 135 -14 108 0 135 3 135 14 0 7
-14 16 -32 20 -59 12 -58 8 -58 255 0 247 2 257 55 263 19 2 31 9 33 21 3 15
-8 17 -132 17 -129 0 -136 -1 -136 -20z"/>
<path d="M8792 1033 c2 -10 17 -20 36 -24 18 -4 36 -10 40 -14 4 -3 8 -103 10
-220 3 -241 -2 -268 -58 -280 -16 -4 -30 -13 -30 -21 0 -11 22 -14 110 -14 88
0 110 3 110 14 0 8 -16 20 -35 26 -50 17 -57 50 -53 268 l3 182 175 -249 c139
-199 180 -250 198 -251 l22 0 0 244 c0 273 5 301 53 314 18 5 33 16 35 25 3
15 -8 17 -102 17 -99 0 -106 -1 -106 -20 0 -13 7 -20 20 -20 11 0 29 -9 40
-20 18 -18 20 -33 20 -196 l0 -177 -37 55 c-21 30 -90 127 -153 216 l-115 162
-93 0 c-83 0 -93 -2 -90 -17z"/>
<path d="M9860 1021 c0 -15 -3 -49 -6 -75 -6 -42 -5 -46 14 -46 13 0 22 9 26
24 3 14 18 38 32 55 24 29 30 31 95 31 l69 0 0 -236 c0 -133 -4 -243 -10 -253
-5 -10 -25 -22 -45 -25 -21 -4 -35 -13 -35 -21 0 -12 24 -15 135 -15 111 0
135 3 135 15 0 8 -14 17 -36 21 -25 5 -38 14 -45 31 -5 13 -9 128 -9 254 l0
229 64 0 c35 0 72 -3 81 -6 9 -4 27 -28 41 -55 14 -28 31 -49 41 -49 13 0 15
8 9 53 -3 28 -6 62 -6 75 l0 22 -275 0 -275 0 0 -29z"/>
<path d="M10422 1033 c2 -12 14 -19 33 -21 55 -7 55 -6 55 -257 0 -253 1 -249
-58 -261 -18 -4 -32 -13 -32 -20 0 -11 27 -14 135 -14 109 0 135 3 135 14 0 8
-12 17 -27 21 -53 13 -53 11 -53 259 0 250 1 256 52 256 21 0 28 5 28 20 0 19
-7 20 -136 20 -124 0 -135 -2 -132 -17z"/>
<path d="M10706 1018 c-15 -100 -15 -118 3 -118 11 0 25 16 36 41 26 56 48 69
122 69 l63 0 0 -244 c0 -261 1 -258 -53 -271 -15 -4 -27 -13 -27 -21 0 -11 26
-14 130 -14 104 0 130 3 130 14 0 8 -12 17 -27 21 -54 13 -53 10 -53 271 l0
244 63 0 c74 0 96 -13 122 -69 11 -24 25 -41 35 -41 17 0 17 0 4 108 l-5 42
-269 0 -269 0 -5 -32z"/>
<path d="M11272 1033 c2 -11 14 -19 30 -21 15 -2 31 -9 36 -15 6 -7 12 -106
14 -222 5 -246 11 -271 80 -306 35 -19 60 -23 140 -23 108 -1 135 11 173 75
18 30 21 57 25 251 3 119 8 220 12 223 4 4 22 10 40 14 19 4 34 14 36 24 3 15
-8 17 -108 17 -101 0 -111 -2 -108 -17 2 -11 14 -19 31 -21 54 -6 59 -31 55
-239 -4 -220 -13 -254 -75 -279 -49 -21 -128 -13 -159 17 -12 11 -27 40 -33
64 -14 54 -15 390 -1 414 5 10 25 22 45 25 21 4 35 13 35 21 0 12 -24 15 -136
15 -124 0 -135 -2 -132 -17z"/>
<path d="M11870 1021 c0 -15 -3 -49 -6 -75 -6 -42 -5 -46 14 -46 13 0 22 9 26
24 3 14 18 38 32 55 24 29 30 31 95 31 l69 0 0 -236 c0 -133 -4 -243 -10 -253
-5 -10 -25 -22 -45 -25 -21 -4 -35 -13 -35 -21 0 -12 24 -15 135 -15 111 0
135 3 135 15 0 8 -14 17 -36 21 -25 5 -38 14 -45 31 -5 13 -9 128 -9 254 l0
229 64 0 c35 0 72 -3 81 -6 9 -4 27 -28 41 -55 14 -28 31 -49 41 -49 13 0 15
8 9 53 -3 28 -6 62 -6 75 l0 22 -275 0 -275 0 0 -29z"/>
<path d="M12432 1033 c2 -12 14 -19 33 -21 55 -7 55 -6 55 -257 0 -253 1 -249
-58 -261 -18 -4 -32 -13 -32 -20 0 -11 27 -14 135 -14 109 0 135 3 135 14 0 8
-12 17 -27 21 -53 13 -53 11 -53 259 0 250 1 256 52 256 21 0 28 5 28 20 0 19
-7 20 -136 20 -124 0 -135 -2 -132 -17z"/>
<path d="M13420 1030 c0 -15 7 -20 28 -20 50 0 52 -7 52 -245 0 -239 -3 -256
-55 -269 -14 -4 -25 -13 -25 -21 0 -12 19 -15 105 -15 83 0 105 3 105 14 0 8
-13 19 -29 24 -48 17 -52 35 -49 247 l3 196 174 -245 c144 -205 177 -246 197
-246 l24 0 0 258 c0 281 4 302 56 302 17 0 24 5 24 20 0 19 -7 20 -105 20 -98
0 -105 -1 -105 -20 0 -14 7 -20 23 -20 51 0 57 -22 57 -210 l0 -173 -151 211
-151 212 -89 0 c-82 0 -89 -1 -89 -20z"/>
</g>
</svg>
